<svg width="154" height="55" viewBox="0 0 154 55" fill="none" xmlns="http://www.w3.org/2000/svg">
<path fill-rule="evenodd" clip-rule="evenodd" d="M36.8811 27.1698C36.8657 30.1113 39.0225 31.8649 42.4644 31.0676V23.2721C38.979 22.2107 36.8957 24.3581 36.8811 27.1698ZM42.5697 12.0001H47.3103V34.4386C42.7663 35.1815 38.4143 35.6527 35.3009 33.9118C31.2922 31.6705 30.9699 24.5481 34.1421 21.3758C35.7504 19.7676 38.9882 18.6354 42.4644 19.3743V12.3162C42.4554 12.1666 42.447 12.0177 42.5697 12.0001" fill="#2BA977"/>
<path fill-rule="evenodd" clip-rule="evenodd" d="M55.0005 16.9512H50.26V12H55.0005V16.9512V16.9512Z" fill="#2BA977"/>
<path fill-rule="evenodd" clip-rule="evenodd" d="M111.887 31.2782C117.055 33.2865 117.627 22.0281 112.414 23.0612C109.176 23.7029 109.28 30.2653 111.887 31.2782ZM112.098 19.1635C116.044 18.7415 119.022 20.4831 120.209 23.1666C122.236 27.7453 120.098 32.9992 116.838 34.544C115.149 35.3446 113.38 35.4208 111.782 35.2814C106.842 34.8505 103.726 29.8162 105.461 24.22C105.732 23.3441 106.037 22.8084 106.198 22.5345C107.272 20.7088 109.085 19.4856 112.098 19.1635" fill="#2BA977"/>
<path fill-rule="evenodd" clip-rule="evenodd" d="M61.532 29.4874C60.2208 31.6909 63.5152 32.2188 65.6403 31.5943V28.3286C64.0074 28.5565 62.1488 28.4505 61.532 29.4874ZM69.8542 34.6493C65.9382 34.8746 59.9871 36.2085 57.8448 33.5959C56.5862 32.0608 56.7216 29.1329 57.8448 27.6965C59.2964 25.8405 62.465 25.4357 65.3243 25.1682C65.5839 24.5291 65.4089 23.4892 65.1136 23.0611C62.4982 22.395 59.8997 23.4273 58.0556 24.2199V20.533C60.8408 19.2533 67.292 17.9059 69.2222 20.849C70.2359 22.3947 69.8542 25.0905 69.8542 27.4857V34.6493V34.6493Z" fill="#2BA977"/>
<path fill-rule="evenodd" clip-rule="evenodd" d="M86.4988 34.8601H81.7583V28.75C81.7583 26.7382 82.0837 24.1873 81.0207 23.3774C80.1882 22.7427 78.2132 23.0611 77.0177 23.3774V34.8601H72.2771V20.217C77.1231 18.9582 85.8705 17.6086 86.4988 23.6933C86.8086 26.6934 86.2693 31.1943 86.4988 34.8601" fill="#2BA977"/>
<path fill-rule="evenodd" clip-rule="evenodd" d="M93.5569 29.8034C94.3546 31.094 96.5148 31.578 98.2973 30.7515C98.1995 28.286 98.1653 25.7569 98.1921 23.1666C94.0952 22.0842 91.6536 26.7247 93.5569 29.8034V29.8034ZM105.461 19.7956C105.039 21.0593 104.421 22.1271 103.881 23.2721C103.392 23.3815 102.969 23.0779 102.722 23.2721C102.614 28.4072 103.816 35.3687 101.774 39.0738C100.544 41.3045 98.2812 42.7357 94.821 42.9716C92.3004 43.1435 90.344 42.7316 88.5003 42.0235V37.599C90.6628 38.8616 96.1271 39.891 97.6654 37.2829C98.1179 36.5156 98.0892 35.7224 98.2973 34.5439C97.307 34.596 96.3456 35.0546 95.1371 35.0707C90.1688 35.1367 87.0952 31.1807 88.2896 25.6948C88.7516 23.5728 89.9949 21.8643 91.6608 20.849C95.1205 18.7404 100.439 18.9005 105.461 19.7956" fill="#2BA977"/>
<path fill-rule="evenodd" clip-rule="evenodd" d="M55.0005 19.4584C54.9952 22.9492 54.9959 25.4576 54.9956 29.6984C54.7942 33.8661 54.8411 37.1849 53.3151 39.1791C53.0141 39.5723 52.3749 40.146 51.8402 40.5487C51.3911 40.8867 50.5352 41.5723 50.0493 41.6021C49.5595 41.6322 48.3012 40.9222 47.7316 40.654C46.9838 40.3017 46.2925 39.834 45.5195 39.6006C47.3227 38.4832 49.0344 37.6454 49.7332 35.3867C50.341 33.4224 50.26 30.5759 50.26 27.8018C50.26 25.0627 50.2722 21.8781 50.2722 19.4596L55.0005 19.4585V19.4584Z" fill="#2BA977"/>
</svg>
