<svg width="100" height="100" viewBox="0 0 100 100" fill="none" xmlns="http://www.w3.org/2000/svg">
<path d="M99.991 52.4482C99.9013 53.4255 99.8116 54.4029 99.713 55.3713C99.1717 60.4449 97.8432 65.4032 95.7751 70.0679C92.9027 76.644 88.64 82.5204 83.28 87.2932C78.3057 91.7862 72.4664 95.2171 66.1195 97.3757C59.7726 99.5342 53.0518 100.375 46.3686 99.8467C39.147 99.4395 32.1199 97.3548 25.8453 93.7583C17.5453 89.1978 10.7163 82.3686 6.15721 74.0699C1.59815 65.7712 -0.502355 56.3462 0.101458 46.8977C0.51393 38.6285 3.08036 30.6104 7.54653 23.6378C10.9591 18.0944 15.4314 13.2779 20.7076 9.46374C25.9838 5.64954 31.9604 2.91247 38.2956 1.40907C43.4677 0.121206 48.8197 -0.287998 54.1276 0.198559C63.5366 0.918691 72.5364 4.34419 80.0418 10.0621C86.9549 15.258 92.3982 22.161 95.8379 30.0939C98.2352 35.546 99.6183 41.3892 99.9193 47.3371C99.9193 47.5343 99.9731 47.7316 100 47.9289L99.991 52.4482ZM49.7592 2.27885C46.0469 2.11426 42.3308 2.50719 38.7351 3.44454C28.4476 5.90853 19.2733 11.726 12.6594 19.9793C6.53802 27.4004 2.89054 36.5488 2.22734 46.1445C1.77592 51.317 2.18512 56.5286 3.43829 61.5674C7.02627 75.2866 15.0992 85.6253 27.5675 92.3415C37.2662 97.6542 48.5547 99.2968 59.366 96.9684C72.7492 94.2783 83.0916 86.9614 90.5098 75.5377C94.6821 69.0855 97.1509 61.6816 97.6857 54.0174C98.4029 45.8202 96.9787 37.5774 93.5526 30.0956C90.1264 22.6138 84.8157 16.1495 78.1402 11.3353C69.9618 5.2236 59.9673 2.0343 49.7592 2.27885V2.27885Z" fill="black"/>
<path d="M22 36.9083L28.8314 34.3744C32.1157 33.1629 35.4018 31.9531 38.6895 30.745C38.816 30.6853 38.9557 30.6601 39.0948 30.6717C39.2339 30.6834 39.3676 30.7316 39.4828 30.8115C40.7359 31.6101 42.0008 32.3916 43.2775 33.1561C43.4034 33.2158 43.5086 33.3129 43.5789 33.4344C43.6493 33.556 43.6816 33.6963 43.6716 33.8369C43.6716 37.1677 43.6716 40.4985 43.6716 43.8293C43.6873 43.959 43.6568 44.0902 43.5854 44.1991C43.5141 44.308 43.4066 44.3874 43.2825 44.4231C41.8154 45.0269 40.5557 46.054 39.6596 47.3768C38.8562 48.549 38.1084 49.7571 37.3353 50.9601L37.0625 51.385V33.8471L24.2637 38.142V63.0923H22.0051L22 36.9083Z" fill="black"/>
<path d="M52.3068 54.9274H48.7244C49.0124 54.3233 49.2297 53.8063 49.5126 53.32C49.5733 53.2176 49.8259 53.192 49.9876 53.192C51.5792 53.192 53.1709 53.192 54.7575 53.192C55.0208 53.1908 55.2802 53.1277 55.5154 53.0077C57.7285 51.8048 59.9871 51.774 62.362 52.4958C63.6402 52.8111 64.9338 53.0589 66.2375 53.2381C66.3239 53.2538 66.4064 53.2868 66.4802 53.3351C66.5539 53.3835 66.6174 53.4462 66.667 53.5196C68.2704 56.8504 69.8604 60.1881 71.4368 63.5325C71.4899 63.7129 71.4899 63.905 71.4368 64.0854C71.3952 64.2661 71.3253 64.439 71.2297 64.5973C71.0485 64.8724 70.9518 65.1957 70.9518 65.5264C70.9518 65.8571 71.0485 66.1804 71.2297 66.4555C71.432 66.8255 71.5425 67.2398 71.5518 67.6627C71.561 68.0855 71.4687 68.5044 71.2828 68.8831C71.0969 69.2618 70.8229 69.5891 70.4845 69.8368C70.146 70.0845 69.7532 70.2452 69.3399 70.305L68.875 70.3972C68.8094 72.0506 67.8645 73.1461 65.8737 73.0386C65.856 73.5087 65.697 73.962 65.418 74.3381C65.1389 74.7141 64.7532 74.9947 64.3123 75.1425C63.3675 75.4906 62.5237 75.1425 61.7203 74.6306C60.7956 76.1663 59.6638 76.4939 58.0317 75.7056C57.4001 76.5093 56.7685 77.3591 55.5558 76.842C54.813 76.5247 54.4947 75.7824 54.6564 74.7688C53.8833 75.5316 53.0951 76.0281 52.0795 75.3422C51.2306 74.7688 51.0689 74.001 51.5439 72.9413C50.604 73.617 49.7855 73.7553 48.9619 73.0898C48.1383 72.4243 48.1332 71.6667 48.5021 70.6787C47.5673 71.3902 46.7083 71.5233 45.8342 70.8271C45.4868 70.5259 45.259 70.1073 45.193 69.6489C45.1271 69.1905 45.2274 68.7234 45.4754 68.3342C45.9201 67.7045 46.3799 67.08 46.8548 66.4196C46.2586 65.6467 45.6876 64.8839 45.0712 64.1161C44.9446 64.0049 44.8635 63.8499 44.8439 63.6813C44.8243 63.5127 44.8675 63.3428 44.9651 63.2049C45.1504 62.8725 45.3191 62.5307 45.4704 62.1811C46.2384 63.1588 46.9862 64.0649 47.6633 64.9914C47.7386 65.1087 47.8464 65.2008 47.9731 65.2563C48.0998 65.3119 48.2399 65.3284 48.3758 65.3037C49.7653 65.1911 50.5282 65.9487 50.4979 67.3513C50.4979 67.9861 50.6394 68.1499 51.2407 68.155C51.6921 68.1433 52.1323 68.2984 52.4791 68.5913C52.8259 68.8843 53.0556 69.2951 53.1254 69.747C53.2416 70.3613 53.5145 70.5968 54.1057 70.5866C54.4946 70.5526 54.8824 70.6632 55.1967 70.8978C55.511 71.1324 55.7303 71.4748 55.8135 71.8612C55.96 72.5932 56.5007 72.8441 57.0262 73.0949C57.4223 73.2665 57.7697 73.5357 58.0368 73.8781C58.2061 74.1475 58.4421 74.3673 58.7214 74.5155C59.0006 74.6637 59.3134 74.7351 59.6284 74.7227C59.8072 74.7124 59.9784 74.6456 60.1179 74.5318C60.2574 74.4179 60.3583 74.2628 60.4065 74.088C60.548 73.7041 60.26 73.5761 60.0377 73.4072C59.1585 72.7263 58.2843 72.0353 57.39 71.3595C57.0363 71.0985 56.8493 70.822 57.0666 70.4074C57.2333 70.0849 57.7437 70.0747 58.158 70.3664L62.6298 73.5505C63.2917 74.0214 63.8829 73.9856 64.277 73.4532C64.6711 72.9208 64.5448 72.2298 63.8677 71.7332L59.1332 68.2676C58.6279 67.8939 58.4713 67.4844 58.7189 67.1568C58.9665 66.8292 59.3858 66.8701 59.8608 67.208L65.6817 71.3749C66.0808 71.6616 66.5609 71.81 66.9146 71.4773C67.1957 71.1702 67.3635 70.7742 67.3895 70.3562C67.3895 70.1156 67.1268 69.7726 66.8843 69.5986C64.7772 68.0117 62.6449 66.4555 60.5227 64.8891C60.4217 64.8123 60.2701 64.756 60.2297 64.6587C60.1067 64.4378 60.0521 64.1845 60.073 63.9318C60.1373 63.836 60.2229 63.7568 60.323 63.7008C60.4231 63.6448 60.5348 63.6134 60.6491 63.6093C60.8929 63.6312 61.1249 63.7256 61.316 63.8806C63.5056 65.4436 65.6951 67.0152 67.8847 68.5952C68.6224 69.1071 69.4006 69.1072 69.8351 68.5031C69.9634 68.3523 70.0594 68.1761 70.117 67.9857C70.1746 67.7954 70.1926 67.595 70.1698 67.3972C70.147 67.1994 70.0839 67.0086 69.9846 66.8368C69.8852 66.665 69.7517 66.516 69.5926 66.3992L62.074 59.7444L59.689 57.6968C59.4099 57.4639 59.0773 57.3062 58.7219 57.2383C58.3666 57.1703 58.0001 57.1944 57.6564 57.3083C57.3127 57.4221 57.003 57.6221 56.7559 57.8895C56.5088 58.157 56.3324 58.4834 56.243 58.8383C56.0927 59.6743 55.6896 60.4422 55.0893 61.0356C54.4891 61.629 53.7215 62.0186 52.893 62.1504C52.5682 62.2143 52.2332 62.2014 51.9142 62.1126C51.5951 62.0238 51.3007 61.8616 51.0537 61.6385C50.6344 61.2955 50.6849 60.8501 50.8415 60.3536C51.1097 59.5946 51.296 58.8086 51.3973 58.009C51.4461 57.0323 51.7363 56.0835 52.2412 55.2499C52.2776 55.1892 52.3097 55.1259 52.3372 55.0605C52.3372 55.0605 52.3271 54.999 52.3068 54.9274Z" fill="black"/>
<path d="M55.9853 44.0647C53.936 43.0934 51.671 42.6839 49.4166 42.8771V24.684L34.056 29.9515C34.0269 29.4861 34.0269 29.0194 34.056 28.554C34.056 28.4107 34.3137 28.2468 34.4855 28.1803C37.689 26.9517 40.8891 25.73 44.0859 24.515C46.2081 23.7062 48.3302 22.9128 50.4474 22.0886C50.5835 22.0125 50.7406 21.9843 50.8942 22.0084C51.0479 22.0325 51.1893 22.1075 51.2963 22.2217C52.7313 23.5271 54.1966 24.7812 55.6366 26.1071C55.8291 26.2755 55.9518 26.5114 55.9802 26.7674C56.0004 32.4359 56.0004 38.1027 55.9802 43.7678C56.0105 43.8446 56.0004 43.9163 55.9853 44.0647Z" fill="black"/>
<path d="M77 61.8739C76.7928 62.1248 76.6312 62.478 76.3583 62.6315C75.6197 63.0336 74.8608 63.3958 74.0845 63.7168C73.5792 63.9369 73.1245 63.6809 72.8163 63.0359C71.8512 61.0242 70.9012 58.997 69.9261 56.9903C69.1328 55.3523 68.3142 53.7295 67.5057 52.1017C67.4256 51.9905 67.3727 51.8617 67.3513 51.7258C67.3298 51.5899 67.3405 51.4508 67.3824 51.3199C67.4243 51.1891 67.4963 51.0701 67.5924 50.9728C67.6885 50.8756 67.806 50.8028 67.9352 50.7605C68.5871 50.4277 69.249 50.1103 69.9058 49.793C70.5627 49.4756 71.0427 49.5831 71.4217 50.3049C71.8006 51.0267 72.1392 51.7587 72.4929 52.4856C73.8774 55.3181 75.2618 58.1507 76.6463 60.9832C76.7575 61.2187 76.8484 61.4951 77 61.8739Z" fill="black"/>
<path d="M48.7042 51.4515C48.5677 51.8354 48.5071 52.0812 48.401 52.3064C46.7167 55.8931 45.0324 59.4765 43.3482 63.0564C42.9591 63.8754 42.4993 64.029 41.706 63.6297C41.13 63.3431 40.5641 63.041 39.9931 62.7441C39.215 62.3397 39.0785 61.92 39.4878 61.1112C40.5388 58.9356 41.5999 56.7702 42.6408 54.5895C43.3381 53.1254 44.0101 51.6512 44.6922 50.182C44.728 50.0491 44.7941 49.9265 44.8852 49.8242C44.9762 49.7219 45.0898 49.6426 45.2166 49.5928C45.3434 49.543 45.4799 49.5241 45.6153 49.5375C45.7506 49.5509 45.881 49.5963 45.9958 49.6701C46.7083 50.0079 47.4258 50.3304 48.1079 50.7246C48.3425 50.9343 48.5436 51.1795 48.7042 51.4515V51.4515Z" fill="black"/>
<path d="M26.7244 59.1915L34.7078 58.6028V62.9284H26.7244V59.1915Z" fill="black"/>
<path d="M34.7281 37.5994V41.8891L26.6991 44.1415C26.6991 43.3429 26.6991 42.6058 26.6991 41.8789C26.6991 41.367 26.5526 40.7476 26.7951 40.4046C27.0377 40.0616 27.6693 40.0053 28.1392 39.8466L34.0055 37.799C34.2228 37.7325 34.4401 37.6864 34.7281 37.5994Z" fill="black"/>
<path d="M26.7193 50.4789V46.8392L34.6978 44.7046V48.8561L26.7193 50.4789Z" fill="black"/>
<path d="M34.7281 51.7689V55.9153L26.7446 56.7036V53.1203L34.7281 51.7689Z" fill="black"/>
</svg>
