<svg id="Layer_1" data-name="Layer 1" xmlns="http://www.w3.org/2000/svg" viewBox="0 0 516 483"><defs><style>.cls-1{fill:none;}.cls-2,.cls-3{fill:#231f20;}.cls-2{fill-rule:evenodd;}</style></defs><title>full</title><path d="M356.17,203.37l45.59-24.49-.1-.28a5,5,0,0,0-.75.17l-26.07,10q-12.12,4.64-24.23,9.29a1.21,1.21,0,0,1-1.37-.21q-13-10.44-26.11-20.86c-.18-.15-.34-.32-.51-.48l0-.25,107.11-11.52.11.2c-.14.23-.27.47-.43.7L411.8,191.15,387.3,226.61c-.57.82-.56.82-1.35.2L357.05,204.1Z"/><path d="M347.77,228.58l7.55-20.41L365.46,216,348,228.79Z"/><path class="cls-1" d="M33.62,273.47c4.64-.41,9.06-.9,13.57-1.44l-1.79-14.89c-4.35.52-8.79,1-13,1.39Z"/><polygon class="cls-2" points="42.79 264.46 42.96 265.95 45.43 265.67 45.26 264.18 42.79 264.46"/><polygon class="cls-2" points="38.37 264.94 38.53 266.44 41 266.17 40.84 264.68 38.37 264.94"/><polygon class="cls-2" points="33.96 265.38 34.1 266.88 36.58 266.64 36.43 265.14 33.96 265.38"/><path class="cls-1" d="M47.19,272q6.73-.8,13.42-1.76l-2.1-14.85q-6.55.93-13.1,1.72Z"/><polygon class="cls-2" points="56.05 262.8 56.26 264.29 58.72 263.95 58.51 262.46 56.05 262.8"/><polygon class="cls-2" points="51.64 263.39 51.83 264.87 54.3 264.55 54.1 263.06 51.64 263.39"/><polygon class="cls-2" points="47.24 263.94 47.42 265.43 49.89 265.12 49.7 263.63 47.24 263.94"/><path class="cls-1" d="M60.61,270.27q6.7-.95,13.38-2l-2.41-14.8q-6.52,1.06-13.07,2Z"/><polygon class="cls-2" points="69.28 260.86 69.51 262.34 71.96 261.95 71.73 260.47 69.28 260.86"/><polygon class="cls-2" points="64.88 261.54 65.1 263.02 67.56 262.65 67.33 261.17 64.88 261.54"/><polygon class="cls-2" points="60.49 262.18 60.7 263.67 63.16 263.31 62.95 261.82 60.49 262.18"/><path class="cls-1" d="M74,268.24q6.68-1.09,13.34-2.31L84.6,251.18q-6.49,1.2-13,2.26Z"/><rect class="cls-3" x="82.57" y="258.42" width="2.48" height="1.5" transform="translate(-44.31 18.8) rotate(-10.14)"/><polygon class="cls-2" points="78.07 259.42 78.33 260.89 80.78 260.47 80.52 258.99 78.07 259.42"/><polygon class="cls-2" points="73.7 260.15 73.94 261.63 76.39 261.22 76.15 259.74 73.7 260.15"/><path class="cls-1" d="M87.33,265.93q6.66-1.23,13.29-2.61l-3.06-14.68q-6.46,1.34-13,2.55Z"/><polygon class="cls-2" points="95.58 256.15 95.88 257.62 98.32 257.12 98.01 255.65 95.58 256.15"/><polygon class="cls-2" points="91.22 257.01 91.5 258.49 93.94 258.01 93.65 256.54 91.22 257.01"/><polygon class="cls-2" points="86.86 257.84 87.14 259.32 89.58 258.86 89.3 257.38 86.86 257.84"/><path class="cls-1" d="M100.62,263.31q6.64-1.38,13.25-2.94l-3.44-14.6q-6.41,1.5-12.87,2.86Z"/><rect class="cls-3" x="108.78" y="253.04" width="2.48" height="1.5" transform="translate(-53.71 30.84) rotate(-12.86)"/><rect class="cls-3" x="104.44" y="254.03" width="2.48" height="1.5" transform="translate(-52.1 28.54) rotate(-12.36)"/><rect class="cls-3" x="100.1" y="254.97" width="2.48" height="1.5" transform="translate(-50.51 26.36) rotate(-11.89)"/><path class="cls-1" d="M113.86,260.37c4.41-1,8.8-2.14,13.19-3.3l-3.86-14.49c-4.23,1.12-8.48,2.2-12.76,3.2Z"/><polygon class="cls-2" points="121.63 250.19 122 251.64 124.41 251.02 124.03 249.57 121.63 250.19"/><polygon class="cls-2" points="117.32 251.28 117.68 252.74 120.09 252.13 119.72 250.68 117.32 251.28"/><rect class="cls-3" x="113.15" y="252.02" width="2.48" height="1.5" transform="translate(-55.34 33.3) rotate(-13.37)"/><path class="cls-1" d="M127.05,257.07c4.39-1.16,8.75-2.42,13.11-3.73L135.81,239c-4.18,1.26-8.38,2.47-12.62,3.59Z"/><polygon class="cls-2" points="134.51 246.65 134.93 248.09 137.32 247.38 136.89 245.95 134.51 246.65"/><polygon class="cls-2" points="130.23 247.87 130.64 249.32 133.03 248.64 132.62 247.2 130.23 247.87"/><polygon class="cls-2" points="125.96 249.05 126.35 250.5 128.75 249.85 128.35 248.4 125.96 249.05"/><path class="cls-1" d="M140.16,253.34c4.36-1.31,8.69-2.74,13-4.23L148.24,235c-4.11,1.42-8.25,2.78-12.43,4Z"/><polygon class="cls-2" points="147.25 242.65 147.73 244.07 150.09 243.28 149.6 241.86 147.25 242.65"/><polygon class="cls-2" points="143.03 244.04 143.48 245.47 145.85 244.7 145.39 243.28 143.03 244.04"/><polygon class="cls-2" points="138.8 245.36 139.24 246.8 141.62 246.06 141.17 244.63 138.8 245.36"/><path class="cls-1" d="M153.17,249.12c4.32-1.49,8.61-3.12,12.87-4.83l-5.64-13.9c-4,1.61-8.06,3.16-12.17,4.57Z"/><polygon class="cls-2" points="159.81 238.12 160.35 239.51 162.67 238.61 162.11 237.21 159.81 238.12"/><polygon class="cls-2" points="155.65 239.69 156.17 241.1 158.51 240.23 157.97 238.83 155.65 239.69"/><polygon class="cls-2" points="151.48 241.2 151.98 242.61 154.33 241.78 153.82 240.37 151.48 241.2"/><path class="cls-1" d="M166,244.28q6.4-2.57,12.67-5.59l-6.51-13.51c-3.86,1.85-7.79,3.6-11.8,5.21Z"/><path class="cls-2" d="M172.1,232.93l.63,1.36c.76-.35,1.52-.68,2.26-1.05l-.64-1.35C173.6,232.25,172.85,232.58,172.1,232.93Z"/><path class="cls-2" d="M168,234.74l.6,1.38c.76-.33,1.53-.65,2.28-1l-.61-1.37C169.56,234.09,168.8,234.4,168,234.74Z"/><polygon class="cls-2" points="163.96 236.46 164.53 237.84 166.83 236.89 166.25 235.51 163.96 236.46"/><path class="cls-1" d="M178.71,238.69c4.18-2,8.32-4.17,12.36-6.58l-7.63-12.92c-3.62,2.15-7.39,4.13-11.25,6Z"/><path class="cls-2" d="M184,226.92l.73,1.31c.74-.39,1.45-.83,2.17-1.24l-.75-1.3C185.43,226.1,184.73,226.53,184,226.92Z"/><path class="cls-2" d="M180.09,229l.69,1.33c.74-.37,1.48-.77,2.21-1.17l-.71-1.32C181.55,228.26,180.83,228.65,180.09,229Z"/><path class="cls-2" d="M176.14,231l.66,1.35c.75-.36,1.5-.72,2.24-1.11l-.68-1.34C177.62,230.29,176.88,230.66,176.14,231Z"/><path class="cls-1" d="M191.08,232.11a124.3,124.3,0,0,0,11.85-7.91l-9.08-11.94a109.48,109.48,0,0,1-10.39,6.93Z"/><polygon class="cls-2" points="195.28 219.85 196.15 221.08 198.18 219.61 197.28 218.41 195.28 219.85"/><polygon class="cls-2" points="191.61 222.34 192.43 223.6 194.51 222.21 193.67 220.97 191.61 222.34"/><polygon class="cls-2" points="187.87 224.69 188.64 225.97 190.76 224.66 189.97 223.38 187.87 224.69"/><path class="cls-1" d="M202.93,224.2a85.5,85.5,0,0,0,10.91-9.75l-11-10.23a70.65,70.65,0,0,1-9,8Z"/><polygon class="cls-2" points="205.55 211.43 206.59 212.51 208.36 210.71 207.27 209.67 205.55 211.43"/><path class="cls-2" d="M202.27,214.4l1,1.14c.65-.53,1.26-1.1,1.87-1.67l-1-1.1C203.51,213.32,202.91,213.88,202.27,214.4Z"/><path class="cls-2" d="M198.86,217.19l.92,1.18c.65-.52,1.33-1,2-1.56l-1-1.16C200.17,216.2,199.5,216.68,198.86,217.19Z"/><path class="cls-1" d="M213.83,214.45a60.75,60.75,0,0,0,9-12.27L209.66,195a45.81,45.81,0,0,1-6.8,9.24Z"/><polygon class="cls-2" points="214.02 201.27 215.28 202.09 216.59 199.92 215.28 199.17 214.02 201.27"/><polygon class="cls-2" points="211.45 204.85 212.64 205.77 213.42 204.78 214.14 203.74 212.91 202.88 212.21 203.88 211.45 204.85"/><polygon class="cls-2" points="208.63 208.22 209.74 209.23 211.41 207.33 210.25 206.38 208.63 208.22"/><path class="cls-1" d="M222.82,202.18a48.11,48.11,0,0,0,5.24-14.87l-14.78-2.57A33.06,33.06,0,0,1,209.66,195Z"/><polygon class="cls-2" points="219.42 189.28 220.87 189.67 221.47 187.19 220 186.9 219.42 189.28"/><path class="cls-2" d="M218,193.45l1.4.55c.35-.77.56-1.6.85-2.4l-1.43-.46C218.59,191.91,218.39,192.7,218,193.45Z"/><path class="cls-2" d="M216.23,197.43l1.33.69c.37-.76.8-1.49,1.11-2.28l-1.37-.61C217,196,216.58,196.69,216.23,197.43Z"/><path class="cls-1" d="M228.06,187.31l.31-2c.12-.68.14-1.22.21-1.84.13-1.2.24-2.41.31-3.63.18-2.43.2-4.9.15-7.39l-15,.44c0,2,0,4-.13,6-.05,1-.15,2-.26,3-.06.49-.09,1.06-.17,1.48l-.22,1.33Z"/><path class="cls-2" d="M221,176.16l1.5,0c0-.84,0-1.68,0-2.52l-1.5,0C221.05,174.52,221.06,175.34,221,176.16Z"/><polygon class="cls-2" points="220.81 180.57 222.3 180.69 222.47 178.19 220.97 178.11 220.81 180.57"/><path class="cls-2" d="M220.31,184.95l1.48.22c.15-.84.24-1.67.32-2.5l-1.49-.15C220.54,183.33,220.46,184.15,220.31,184.95Z"/><path class="cls-1" d="M229.05,172.48a62.81,62.81,0,0,0-.67-7.56,48,48,0,0,0-1.75-7.64l-14.3,4.51a33.08,33.08,0,0,1,1.22,5.38,47.9,47.9,0,0,1,.51,5.75Z"/><path class="cls-2" d="M219.87,163l1.46-.33c-.19-.82-.41-1.64-.62-2.46l-1.44.41C219.47,161.41,219.68,162.2,219.87,163Z"/><polygon class="cls-2" points="220.62 167.33 222.11 167.15 221.73 164.64 220.25 164.91 220.62 167.33"/><path class="cls-2" d="M221,171.71l1.5-.07c-.06-.84-.07-1.68-.17-2.52l-1.49.13C220.92,170.07,220.92,170.9,221,171.71Z"/><path class="cls-1" d="M226.63,157.28a38.76,38.76,0,0,0-8-14.35l-11.2,10a23.76,23.76,0,0,1,4.87,8.88Z"/><path class="cls-2" d="M214.76,150.95l1.23-.85c-.47-.71-1-1.38-1.55-2l-1.15,1C213.8,149.64,214.31,150.27,214.76,150.95Z"/><path class="cls-2" d="M217,154.71l1.34-.67c-.4-.75-.77-1.52-1.23-2.24l-1.29.77C216.25,153.25,216.6,154,217,154.71Z"/><path class="cls-2" d="M218.67,158.74l1.42-.49c-.3-.8-.58-1.6-.92-2.38l-1.38.59C218.11,157.21,218.38,158,218.67,158.74Z"/><path class="cls-1" d="M218.65,142.93A36.38,36.38,0,0,0,205,133.39l-5.61,13.91a21.32,21.32,0,0,1,8.09,5.61Z"/><path class="cls-2" d="M205.06,142.29l.71-1.32c-.77-.38-1.51-.79-2.3-1.11l-.6,1.37C203.62,141.53,204.33,141.93,205.06,142.29Z"/><path class="cls-2" d="M208.73,144.65l.9-1.2c-.67-.53-1.39-1-2.11-1.46l-.8,1.27C207.41,143.71,208.1,144.15,208.73,144.65Z"/><path class="cls-2" d="M212,147.53l1.08-1c-.61-.6-1.2-1.22-1.86-1.77l-1,1.13C210.85,146.38,211.41,147,212,147.53Z"/><path class="cls-1" d="M205,133.39a47.26,47.26,0,0,0-15.51-3.21l-.67,15a32.35,32.35,0,0,1,10.57,2.14Z"/><path class="cls-2" d="M192.53,138.48l.18-1.49c-.84-.11-1.68-.17-2.52-.24l-.1,1.5C190.9,138.31,191.72,138.37,192.53,138.48Z"/><path class="cls-2" d="M196.86,139.23l.34-1.46c-.83-.17-1.66-.37-2.49-.49l-.25,1.48C195.26,138.87,196.06,139.07,196.86,139.23Z"/><path class="cls-2" d="M201,140.49l.52-1.41c-.79-.31-1.61-.55-2.42-.8l-.42,1.44C199.5,140,200.28,140.19,201,140.49Z"/><path class="cls-1" d="M189.47,130.18a63.84,63.84,0,0,0-15.07,1.2l2.87,14.72a48.93,48.93,0,0,1,11.53-.93Z"/><path class="cls-2" d="M179.33,138.69l-.21-1.49c-.83.1-1.66.25-2.49.39l.26,1.48C177.71,138.94,178.51,138.8,179.33,138.69Z"/><path class="cls-2" d="M183.72,138.25l-.09-1.5c-.84.06-1.68.11-2.52.21l.16,1.49C182.08,138.36,182.9,138.31,183.72,138.25Z"/><path class="cls-2" d="M188.11,138.16l0-1.5c-.84,0-1.69,0-2.53,0l0,1.5C186.47,138.15,187.29,138.15,188.11,138.16Z"/><path class="cls-1" d="M174.4,131.38a77.58,77.58,0,0,0-14.18,4.24l5.64,13.9a62.67,62.67,0,0,1,11.41-3.41Z"/><path class="cls-2" d="M166.46,141.84l-.5-1.42c-.79.28-1.58.56-2.36.88l.54,1.4C164.91,142.39,165.69,142.12,166.46,141.84Z"/><path class="cls-2" d="M170.67,140.51l-.41-1.44c-.8.24-1.61.46-2.41.73l.46,1.43C169.09,141,169.89,140.74,170.67,140.51Z"/><path class="cls-2" d="M174.95,139.46l-.31-1.47c-.82.17-1.64.37-2.45.56l.36,1.46C173.35,139.82,174.14,139.62,174.95,139.46Z"/><path class="cls-1" d="M160.22,135.61a77.35,77.35,0,0,0-13.13,6.85L155.3,155a62.42,62.42,0,0,1,10.55-5.5Z"/><path class="cls-2" d="M154.41,147.37l-.75-1.3c-.72.44-1.45.85-2.15,1.31l.8,1.27C153,148.2,153.71,147.8,154.41,147.37Z"/><path class="cls-2" d="M158.31,145.28l-.67-1.34c-.76.36-1.49.77-2.24,1.16l.72,1.32C156.85,146,157.57,145.64,158.31,145.28Z"/><path class="cls-2" d="M162.31,143.44l-.58-1.38c-.78.32-1.54.67-2.3,1l.63,1.36C160.8,144.1,161.55,143.76,162.31,143.44Z"/><path class="cls-1" d="M147.09,142.46a62.08,62.08,0,0,0-11.66,9.76l11.05,10.14A47.21,47.21,0,0,1,155.3,155Z"/><path class="cls-2" d="M143.76,155.21l-1-1.09c-.6.59-1.22,1.16-1.8,1.78l1.08,1C142.58,156.34,143.18,155.78,143.76,155.21Z"/><path class="cls-2" d="M147.1,152.34l-.93-1.18c-.67.51-1.3,1.07-1.95,1.61l1,1.13C145.84,153.38,146.45,152.83,147.1,152.34Z"/><path class="cls-2" d="M150.65,149.74l-.84-1.24c-.7.47-1.39,1-2.06,1.46l.89,1.21C149.3,150.67,150,150.2,150.65,149.74Z"/><path class="cls-1" d="M135.43,152.22a45.73,45.73,0,0,0-4.89,6.32l-1.06,1.77c-.41.8-.82,1.6-1.17,2.44a22.09,22.09,0,0,0-.83,2.71,16.74,16.74,0,0,0-.4,2.87l15,.87a3.24,3.24,0,0,1,.2-.92,5.1,5.1,0,0,0,.27-.57l.66-1.1a30.76,30.76,0,0,1,3.29-4.24Z"/><path class="cls-2" d="M135.82,165.59l-1.39-.57a12.82,12.82,0,0,0-.71,2.61l1.48.23A11.34,11.34,0,0,1,135.82,165.59Z"/><path class="cls-2" d="M138,161.84l-1.23-.85c-.48.7-.94,1.42-1.37,2.15l1.3.76C137.08,163.2,137.52,162.51,138,161.84Z"/><path class="cls-2" d="M140.68,158.4l-1.13-1c-.57.62-1.09,1.3-1.62,2l1.19.92C139.64,159.65,140.13,159,140.68,158.4Z"/><path class="cls-1" d="M127.08,168.32q0,.73,0,1.45c0,.48.07.94.11,1.42s.09,1,.18,1.4l.3,1.33a21.6,21.6,0,0,0,1.84,4.74,31.91,31.91,0,0,0,5.17,7l10.89-10.31a17.33,17.33,0,0,1-2.78-3.68,4.93,4.93,0,0,1-.7-2.5Z"/><path class="cls-2" d="M138.27,177.57l-1.2.9c.49.71,1.08,1.33,1.62,2l1.12-1C139.3,178.82,138.72,178.23,138.27,177.57Z"/><path class="cls-2" d="M136.06,173.85l-1.38.59a20,20,0,0,0,1.23,2.31l1.28-.78A18.5,18.5,0,0,1,136.06,173.85Z"/><path class="cls-2" d="M135.07,169.75l-1.5.06.14,1.35c.07.44.19.87.29,1.31l1.45-.39c-.08-.39-.2-.77-.26-1.16Z"/><path class="cls-1" d="M134.64,185.68a51.63,51.63,0,0,0,5.77,5.2c2,1.56,4,3,6,4.27l8.21-12.55c-1.72-1.12-3.37-2.28-4.9-3.5a36.85,36.85,0,0,1-4.16-3.74Z"/><polygon class="cls-2" points="147.93 186.5 147.06 187.72 149.13 189.15 149.96 187.9 147.93 186.5"/><path class="cls-2" d="M144.42,183.82l-1,1.16c.66.52,1.31,1.05,2,1.56l.91-1.2C145.7,184.85,145.07,184.33,144.42,183.82Z"/><path class="cls-2" d="M141.16,180.89l-1.06,1.06c.62.58,1.22,1.18,1.85,1.73l1-1.12C142.33,182,141.76,181.44,141.16,180.89Z"/><path class="cls-1" d="M146.39,195.16a135.2,135.2,0,0,0,12.28,7.05l6.83-13.35a120.42,120.42,0,0,1-10.91-6.25Z"/><polygon class="cls-2" points="159.27 193.46 158.56 194.78 160.76 195.94 161.46 194.61 159.27 193.46"/><path class="cls-2" d="M155.4,191.28l-.76,1.3c.72.41,1.44.85,2.17,1.24l.73-1.31C156.82,192.12,156.12,191.69,155.4,191.28Z"/><path class="cls-2" d="M151.63,189l-.81,1.26c.7.46,1.42.88,2.13,1.32l.78-1.28C153,189.86,152.31,189.44,151.63,189Z"/><path class="cls-1" d="M158.67,202.21c4.15,2.12,8.33,4.06,12.54,5.88l6-13.76c-4-1.72-7.88-3.54-11.67-5.47Z"/><polygon class="cls-2" points="171.24 199.33 170.62 200.69 172.9 201.71 173.5 200.34 171.24 199.33"/><polygon class="cls-2" points="167.21 197.47 166.56 198.82 168.82 199.88 169.45 198.51 167.21 197.47"/><path class="cls-2" d="M163.23,195.52l-.68,1.34c.74.37,1.48.75,2.24,1.11l.66-1.35C164.7,196.26,164,195.89,163.23,195.52Z"/><path class="cls-1" d="M171.21,208.09c4.21,1.82,8.45,3.53,12.71,5.15l5.33-14q-6.11-2.33-12.08-4.9Z"/><polygon class="cls-2" points="183.55 204.49 183 205.89 185.32 206.79 185.86 205.39 183.55 204.49"/><polygon class="cls-2" points="179.42 202.84 178.85 204.23 181.16 205.16 181.72 203.77 179.42 202.84"/><polygon class="cls-2" points="175.34 201.13 174.75 202.5 177.04 203.48 177.62 202.09 175.34 201.13"/><path class="cls-1" d="M183.92,213.25q6.39,2.43,12.84,4.62l4.83-14.2q-6.22-2.12-12.33-4.44Z"/><polygon class="cls-2" points="196.07 209.13 195.57 210.55 197.93 211.36 198.41 209.94 196.07 209.13"/><polygon class="cls-2" points="191.88 207.64 191.37 209.05 193.71 209.89 194.22 208.48 191.88 207.64"/><polygon class="cls-2" points="187.73 206.1 187.2 207.5 189.53 208.38 190.05 206.97 187.73 206.1"/><path class="cls-1" d="M196.76,217.87q6.45,2.19,12.95,4.18l4.39-14.34q-6.29-1.93-12.51-4Z"/><polygon class="cls-2" points="208.75 213.34 208.3 214.77 210.67 215.51 211.12 214.08 208.75 213.34"/><polygon class="cls-2" points="204.51 211.98 204.05 213.41 206.42 214.17 206.87 212.74 204.51 211.98"/><polygon class="cls-2" points="200.31 210.59 199.83 212.01 202.19 212.8 202.66 211.37 200.31 210.59"/><path class="cls-1" d="M209.71,222q6.5,2,13.05,3.79l4-14.46q-6.34-1.75-12.64-3.67Z"/><polygon class="cls-2" points="221.55 217.16 221.14 218.61 223.54 219.28 223.94 217.83 221.55 217.16"/><polygon class="cls-2" points="217.28 215.93 216.85 217.37 219.24 218.06 219.66 216.62 217.28 215.93"/><polygon class="cls-2" points="213.03 214.66 212.59 216.1 214.97 216.82 215.4 215.38 213.03 214.66"/><path class="cls-1" d="M222.76,225.84q6.55,1.8,13.16,3.42l3.55-14.57q-6.38-1.56-12.73-3.3Z"/><polygon class="cls-2" points="234.46 220.62 234.09 222.07 236.5 222.67 236.86 221.22 234.46 220.62"/><polygon class="cls-2" points="230.15 219.51 229.77 220.96 232.18 221.59 232.55 220.13 230.15 219.51"/><polygon class="cls-2" points="225.87 218.36 225.47 219.81 227.87 220.46 228.26 219.01 225.87 218.36"/><path class="cls-1" d="M235.92,229.25q6.61,1.61,13.31,3l3-14.69q-6.4-1.32-12.79-2.89Z"/><polygon class="cls-2" points="247.46 223.68 247.14 225.14 249.57 225.66 249.88 224.19 247.46 223.68"/><polygon class="cls-2" points="243.12 222.7 242.78 224.17 245.21 224.72 245.54 223.25 243.12 222.7"/><polygon class="cls-2" points="238.8 221.69 238.45 223.15 240.87 223.73 241.22 222.27 238.8 221.69"/><path class="cls-1" d="M249.23,232.26c4.47.92,9,1.77,13.55,2.46L265,219.89c-4.23-.64-8.5-1.44-12.77-2.32Z"/><polygon class="cls-2" points="260.56 226.23 260.31 227.71 262.77 228.11 263 226.63 260.56 226.23"/><polygon class="cls-2" points="256.19 225.44 255.91 226.92 258.36 227.37 258.62 225.89 256.19 225.44"/><polygon class="cls-2" points="251.84 224.59 251.54 226.06 253.98 226.55 254.27 225.08 251.84 224.59"/><path class="cls-1" d="M262.78,234.71q3.43.53,7,.91a73.92,73.92,0,0,0,7.44.45l0-15c-1.8,0-3.85-.16-5.91-.37s-4.16-.49-6.28-.82Z"/><path class="cls-2" d="M273.77,227.91l-.1,1.5c.84,0,1.68.1,2.52.12l0-1.5C275.41,228,274.59,228,273.77,227.91Z"/><polygon class="cls-2" points="269.36 227.5 269.19 228.99 271.68 229.25 271.82 227.76 269.36 227.5"/><polygon class="cls-2" points="264.98 226.93 264.76 228.41 267.24 228.75 267.43 227.26 264.98 226.93"/><path class="cls-1" d="M277.19,236.07a35,35,0,0,0,4-.21l3.48-.35c2.33-.2,4.61-.56,6.91-.87l-2.14-14.85c-2.12.29-4.25.63-6.36.8l-3.18.32a20.7,20.7,0,0,1-2.68.15Z"/><polygon class="cls-2" points="287 227.17 287.18 228.66 289.66 228.32 289.45 226.83 287 227.17"/><polygon class="cls-2" points="282.58 227.66 282.73 229.15 285.22 228.9 285.05 227.41 282.58 227.66"/><path class="cls-2" d="M278.2,228l0,1.5,1.29-.07,1.24-.12-.13-1.49C279.82,227.95,279,228,278.2,228Z"/><path class="cls-1" d="M291.57,234.64c2.3-.29,4.56-.71,6.83-1.1s4.52-.84,6.77-1.29l-3-14.7c-2.12.42-4.24.87-6.37,1.21s-4.25.76-6.37,1Z"/><polygon class="cls-2" points="300.17 225.07 300.45 226.55 302.89 226.06 302.6 224.59 300.17 225.07"/><polygon class="cls-2" points="295.8 225.85 296.05 227.33 298.51 226.91 298.24 225.43 295.8 225.85"/><path class="cls-2" d="M291.43,226.56l.22,1.48c.82-.11,1.65-.23,2.46-.38l-.24-1.48C293.06,226.33,292.24,226.45,291.43,226.56Z"/><path class="cls-1" d="M305.17,232.26c2.26-.43,4.48-.95,6.71-1.45s4.44-1.05,6.66-1.6l-3.66-14.54c-2.11.52-4.22,1.07-6.35,1.52s-4.24,1-6.36,1.38Z"/><polygon class="cls-2" points="313.22 222.26 313.57 223.72 315.99 223.12 315.63 221.66 313.22 222.26"/><polygon class="cls-2" points="308.89 223.25 309.22 224.72 311.65 224.17 311.3 222.71 308.89 223.25"/><path class="cls-2" d="M304.56,224.19l.31,1.47c.81-.16,1.63-.32,2.44-.51l-.32-1.47C306.18,223.87,305.37,224,304.56,224.19Z"/><path class="cls-1" d="M318.54,229.21c4.43-1.1,8.81-2.32,13.18-3.58l-4.21-14.4c-4.2,1.22-8.4,2.38-12.63,3.44Z"/><polygon class="cls-2" points="326.14 218.87 326.54 220.31 328.94 219.63 328.52 218.19 326.14 218.87"/><polygon class="cls-2" points="321.85 220.05 322.24 221.5 324.64 220.85 324.24 219.41 321.85 220.05"/><path class="cls-2" d="M317.56,221.18l.37,1.45c.81-.19,1.61-.41,2.41-.62l-.38-1.45C319.17,220.77,318.37,221,317.56,221.18Z"/><path class="cls-1" d="M331.72,225.62c4.36-1.28,8.7-2.62,13-4.06L340,207.33c-4.15,1.38-8.33,2.67-12.52,3.9Z"/><polygon class="cls-2" points="338.92 215.02 339.38 216.44 341.75 215.68 341.28 214.25 338.92 215.02"/><polygon class="cls-2" points="334.68 216.35 335.12 217.78 337.5 217.04 337.05 215.61 334.68 216.35"/><polygon class="cls-2" points="330.44 217.63 330.87 219.07 333.25 218.35 332.81 216.92 330.44 217.63"/><path class="cls-1" d="M344.74,221.56c4.34-1.44,8.56-2.9,13-4.57l-5.43-14c-3.92,1.49-8.13,3-12.25,4.32Z"/><polygon class="cls-2" points="351.56 210.71 352.08 212.12 354.42 211.26 353.89 209.85 351.56 210.71"/><polygon class="cls-2" points="347.38 212.2 347.87 213.61 350.22 212.79 349.71 211.38 347.38 212.2"/><polygon class="cls-2" points="343.18 213.62 343.65 215.05 346.01 214.25 345.53 212.83 343.18 213.62"/></svg>