<svg id="Layer_1" data-name="Layer 1" xmlns="http://www.w3.org/2000/svg" viewBox="0 0 507 452"><defs><style>.cls-1{fill:#fdfdfd;}.cls-2{fill:#0a0a0a;}.cls-3{fill:#3a6896;}.cls-4{fill:#3c6997;}.cls-5{fill:#2e2e2e;}.cls-6{fill:#2c2c2c;}.cls-7{fill:#2b2b2b;}.cls-8{fill:#232323;}.cls-9{fill:#f6f7f8;}.cls-10{fill:#fcfcfd;}.cls-11{fill:#fafafa;}.cls-12{fill:#f1f1f1;}.cls-13{fill:#326192;}.cls-14{fill:#326292;}.cls-15{fill:#346393;}</style></defs><title>full</title><path class="cls-1" d="M227.5,337.68q-60.14,0-120.28,0c-1.67,0-2-.33-2-2q.08-109.79,0-219.58c0-1.67.33-2,2-2q120.28.08,240.57,0c1.67,0,2,.33,2,2q-.08,109.79,0,219.58c0,1.67-.33,2-2,2Q287.64,337.63,227.5,337.68Zm-78-175.4c0,8.19,2,16.64,4.11,25.08,3.09,12.54,6.67,24.93,12.7,36.45,2.23,4.25,4.67,8.4,8.6,11.38,3.47,2.64,7.4,3.59,11.07,1,2.43-1.72,3.83-1.89,6.46-.25,3.51,2.19,7.87,2.35,12,2.86a16,16,0,0,0,9.06-1.19c1.93-.92,2.47-.76,2.47,1.58a117.81,117.81,0,0,0,1.93,23.53,15.24,15.24,0,0,0,9.36,11.38c6.27,2.75,12.56,1.69,18.81-.18,8.46-2.52,13.45-8.17,14.89-16.86q1.86-11.18,3-22.47c.11-1.13.16-1.76,1.66-1.51a34.64,34.64,0,0,0,11.64-.45c7.44-1.28,13.16-5,16.24-12.09,1-2.26,1.57-4.73-.18-7s-4.1-1.91-6.49-1.5a52.13,52.13,0,0,1-10.17,1c-1.75,0-2.52-.33-1.32-2.33A137.19,137.19,0,0,0,287,185.65c3.78-10.77,6.83-21.7,6.53-33.27-.09-3.61-.61-7.2-2.92-10.13a41.06,41.06,0,0,0-18.43-13.49c-11.7-4.27-23.44-3.65-35.17-.24a8.19,8.19,0,0,1-4,.09c-8.9-1.7-17.63-1.58-25.86,2.79a3.91,3.91,0,0,1-3.25,0c-9-2.61-18.18-4.22-27.65-3.09-8.16,1-15.23,4-20.26,10.77S149.64,153.59,149.47,162.28ZM309.35,313.09a19.1,19.1,0,0,0-2.65-11.39c-5.4-8.4-18.27-7.92-24-3.85-7.11,5-8.78,17.23-3.37,24.53,4,5.38,11.64,7.89,19.11,5.55,3.08-1,5.16-.68,7.15,1.63.1.12.27.19.37.31,1,1.1,1.58.44,2.33-.33,1-1,.29-1.52-.44-2.11s-1.6-1.39-2.45-2-.8-1.2-.08-1.94A14.77,14.77,0,0,0,309.35,313.09Zm-46.14,15.53a27.94,27.94,0,0,0,5.56-.66c4.59-1.27,6.85-4.18,6.8-8.83,0-4.33-2-6.64-6.85-7.83-3.7-.92-7.45-1.67-11.12-2.68-3.25-.9-4.33-2.56-4.1-5.67.21-2.8,1.71-4.45,4.8-4.94a26.41,26.41,0,0,1,5.09-.32c4.64.17,6.51,1.62,7.72,6.15.41,1.53,1.42,1,2.28,1.08,1.23.14,1.27-.67,1.18-1.56a8,8,0,0,0-5.41-7.14c-3.93-1.5-8-1.38-12-.64-5.15.94-7.34,3.94-7,9.14.28,3.9,2.21,5.89,6.88,7,3.79.9,7.6,1.71,11.39,2.63a4.47,4.47,0,0,1,3.6,4.11c.27,2.27-.06,4.43-2,5.92-5.92,4.44-15.68,1.16-17.32-5.9-.36-1.57-1.34-1-2.2-1.14-1.14-.13-1.33.52-1.26,1.5.29,3.77,1.87,6.66,5.45,8.28C257.23,328.26,260,328.5,263.22,328.61ZM125.88,312.91c0,3.82,0,7.63,0,11.45,0,1.07-.21,2.08,1.51,2.06s1.38-1.18,1.38-2.16c0-2.35.09-4.71,0-7.06-.1-1.65.33-2.29,2.11-2.22a78.5,78.5,0,0,0,9-.12c4.36-.33,6.94-3.51,6.73-8s-2.75-7.09-7.21-7.18c-3.9-.08-7.79,0-11.69,0-1.35,0-1.85.36-1.81,1.78C125.94,305.27,125.88,309.09,125.88,312.91ZM211.6,323a34.11,34.11,0,0,1,0,4,4.9,4.9,0,0,1-3.3,4.42,12,12,0,0,1-6.49.1c-1.62-.34-2.37-1.54-2.86-3-.32-1-1.25-.7-1.87-.54-1,.27-.35,1-.22,1.58A4.5,4.5,0,0,0,200,333a14.35,14.35,0,0,0,9.54,0,5.8,5.8,0,0,0,4.19-4.93c.69-6.07.16-12.17.3-18.26,0-.71-.34-1-1.06-1s-1.29,0-1.32,1c0,.47.39,1.15-.41,1.42-3.65-3.64-9.71-4-13.18-.72-3.13,2.92-3.29,9.71-.42,13C200,326.28,207.33,327.45,211.6,323Zm100-11.35c0,4.71.06,9.43,0,14.14,0,1.6.43,2.09,2,2.07,6.5-.1,13-.06,19.5-.07.95,0,2,.25,2-1.34,0-1.79-1.15-1.41-2.14-1.41-5.28,0-10.57-.09-15.85,0-1.87,0-2.31-.54-2.29-2.33.09-8,.07-16.09,0-24.14,0-1.15.85-2.92-1.67-2.88-2.35,0-1.51,1.68-1.53,2.76C311.56,302.91,311.61,307.3,311.61,311.69Zm-135.12,15.2c.51,0,1.64-.13,2.76-.28,3.43-.43,5.26-2.14,5.34-4.92s-1.45-4.2-5-4.86c-2.23-.42-4.48-.74-6.71-1.15a2.32,2.32,0,0,1-2.13-2,2.72,2.72,0,0,1,1.46-2.84,6.62,6.62,0,0,1,9.17,2.57c.46.94,1.16.76,1.83.69,1-.11.72-.91.58-1.5a4.86,4.86,0,0,0-3.72-3.79,16,16,0,0,0-8.18,0,4.36,4.36,0,0,0-3.54,4.6c0,2.32,1.21,3.68,3.87,4.23,2.38.49,4.79.87,7.19,1.27,1.53.25,2.65,1,2.72,2.61a3,3,0,0,1-2.49,3.15,14.23,14.23,0,0,1-4.83.25c-2.14-.12-3.83-.85-4.34-3.13-.31-1.4-1.33-1-2.1-.86-1.09.22-.39,1-.26,1.56C168.82,325.5,171.15,326.79,176.48,326.89Zm68.81-6.15a2.08,2.08,0,0,0-2.89,1.22c-1.26,2.58-3.63,3.47-7.05,3a6.27,6.27,0,0,1-5.41-4.9c-.39-1.43-.21-2,1.5-2,4.23.11,8.46,0,12.68,0,.84,0,1.77.3,1.77-1.23,0-3.21-2-6.71-5-7.76-3.79-1.34-7.62-1.37-10.8,1.46s-3.31,6.57-2.25,10.37c1.11,4,4.84,6.21,9.52,6C241.64,326.75,244.44,324.56,245.3,320.74Zm-88.88-12.47c-5.72,0-9.21,3.59-9.18,9.36s3.55,9.31,9.26,9.29c6,0,9.41-3.44,9.4-9.38S162.43,308.25,156.41,308.27Zm32.76,9.19c0,1.62,0,3.24,0,4.87.08,3.24,1.84,4.69,5,4.24.71-.1,1.24-.24,1.24-1.13,0-1-.66-.89-1.33-.84-2,.14-2.7-.93-2.65-2.83.07-2.84.13-5.68,0-8.51-.1-1.88.22-3,2.41-2.55.67.12,1.55.25,1.57-.91s-.88-1-1.54-.92c-2.11.38-2.56-.53-2.49-2.5,0-1.08,1.13-3.2-1.08-3.23s-1,2.08-1.12,3.18c-.12,1.59,0,3-2.25,2.55-.62-.11-.79.4-.78.94s.31,1,.88.88c2.37-.44,2.15,1.11,2.1,2.61S189.17,316.09,189.17,317.47ZM220,311.2c-.59-1.05.11-2.51-1.59-2.34s-1,1.46-1,2.22c-.07,4.55,0,9.1,0,13.66,0,.8-.17,1.64,1.15,1.62s1.11-.87,1.13-1.67a80.33,80.33,0,0,1,.21-8.77c.51-3.92,2-5.36,6.05-5.38.76,0,1.25,0,1.28-.9s-.18-1.37-1.19-1.35C223.7,308.36,221.48,308.62,220,311.2Z"/><path class="cls-2" d="M149.47,162.28c.17-8.69,1.47-16.49,6.45-23.17s12.1-9.8,20.26-10.77c9.46-1.13,18.61.48,27.65,3.09a3.91,3.91,0,0,0,3.25,0c8.23-4.37,17-4.5,25.86-2.79a8.19,8.19,0,0,0,4-.09c11.73-3.41,23.47-4,35.17.24a41.06,41.06,0,0,1,18.43,13.49c2.3,2.93,2.83,6.52,2.92,10.13.3,11.57-2.75,22.5-6.53,33.27a137.19,137.19,0,0,1-11.7,25.12c-1.19,2-.42,2.28,1.32,2.33a52.13,52.13,0,0,0,10.17-1c2.39-.42,4.77-.69,6.49,1.5s1.16,4.69.18,7c-3.08,7.1-8.8,10.81-16.24,12.09a34.64,34.64,0,0,1-11.64.45c-1.5-.25-1.55.39-1.66,1.51q-1.1,11.28-3,22.47c-1.44,8.69-6.43,14.33-14.89,16.86-6.25,1.86-12.54,2.92-18.81.18a15.24,15.24,0,0,1-9.36-11.38,117.81,117.81,0,0,1-1.93-23.53c0-2.34-.54-2.5-2.47-1.58a16,16,0,0,1-9.06,1.19c-4.11-.52-8.48-.67-12-2.86-2.63-1.64-4-1.47-6.46.25-3.67,2.6-7.6,1.65-11.07-1-3.92-3-6.37-7.12-8.6-11.38-6-11.52-9.62-23.91-12.7-36.45C151.51,178.92,149.43,170.47,149.47,162.28ZM219.28,231a4.46,4.46,0,0,1,.3,2.54c.21,8,.07,16,1.33,23.84,1.39,8.67,6.06,14.51,14.94,14.35,14-.24,20.31-6.3,22-17.19,1.17-7.54,2.09-15.12,3-22.69.24-1.92.64-2.83,3-2.51a33.76,33.76,0,0,0,13.29-1,23.08,23.08,0,0,0,11.71-7c1.17-1.32,2-2.86,1-4.64-.94-1.61-2.57-1.86-4.27-1.67-1.53.18-3.06.42-4.59.65-3.39.51-6.77.94-10.17.13-1.35-.32-2-.7-1-2.22a112.23,112.23,0,0,0,9.39-17.32c5.33-12.17,9.69-24.63,10.24-38.08.19-4.64.14-9.41-2.75-13.34a32.61,32.61,0,0,0-13.18-10.53c-11.51-5.13-23.32-4.8-35.26-1.75-1,.26-2,.89-3.06.61a43.33,43.33,0,0,0-7.95-1c-6.59-.44-13,.1-18.59,4a2.71,2.71,0,0,1-2.71.33,75.85,75.85,0,0,0-18.77-4c-6.81-.5-13.54,0-19.76,2.93-9.38,4.47-12.21,13-13.4,22.49-1,7.71.28,15.2,1.86,22.68,2.9,13.74,6.35,27.3,12.59,40a37.69,37.69,0,0,0,6.24,9.26c4.6,4.91,10.19,5,14.87.11,1.07-1.11,2.07-2.29,3.1-3.45l8.38-9.52c.53-.6,1-1.25,2-.68,2.12,1.19,4.56,1.38,6.94,2-1.88,3-4.26,5-7.77,5.47a29,29,0,0,0-5.17,1.37c-1.91.65-3.7,1.75-3.8,4s1.47,3.54,3.32,4.4a22.69,22.69,0,0,0,11.6,2A20.23,20.23,0,0,0,219.28,231Z"/><path class="cls-3" d="M309.35,313.09a14.77,14.77,0,0,1-4.05,10.39c-.73.74-.83,1.28.08,1.94s1.63,1.35,2.45,2,1.44,1.09.44,2.11c-.75.77-1.37,1.43-2.33.33-.1-.12-.27-.19-.37-.31-2-2.31-4.07-2.6-7.15-1.63-7.47,2.34-15.11-.17-19.11-5.55-5.41-7.3-3.74-19.5,3.37-24.53,5.76-4.07,18.63-4.55,24,3.85A19.1,19.1,0,0,1,309.35,313.09ZM292.85,326c8.1,0,13.27-5.41,13.37-14.08s-5.28-14.36-13.38-14.36-13.33,5.44-13.38,14.05S284.74,326,292.85,326Z"/><path class="cls-4" d="M263.22,328.61c-3.25-.12-6-.35-8.56-1.52-3.57-1.62-5.15-4.5-5.45-8.28-.08-1,.11-1.63,1.26-1.5.86.1,1.84-.42,2.2,1.14,1.64,7.05,11.4,10.34,17.32,5.9,2-1.49,2.31-3.65,2-5.92a4.47,4.47,0,0,0-3.6-4.11c-3.79-.91-7.6-1.72-11.39-2.63-4.67-1.12-6.59-3.11-6.88-7-.38-5.2,1.82-8.2,7-9.14,4-.74,8.09-.86,12,.64a8,8,0,0,1,5.41,7.14c.09.89.05,1.7-1.18,1.56-.86-.1-1.87.45-2.28-1.08-1.21-4.53-3.08-6-7.72-6.15a26.41,26.41,0,0,0-5.09.32c-3.09.5-4.59,2.14-4.8,4.94-.23,3.11.85,4.77,4.1,5.67,3.67,1,7.42,1.76,11.12,2.68,4.81,1.19,6.8,3.51,6.85,7.83,0,4.65-2.21,7.56-6.8,8.83A27.94,27.94,0,0,1,263.22,328.61Z"/><path class="cls-5" d="M125.88,312.91c0-3.82.06-7.63,0-11.45,0-1.42.46-1.81,1.81-1.78,3.9.07,7.79,0,11.69,0,4.46.09,7,2.68,7.21,7.18s-2.38,7.63-6.73,8a78.5,78.5,0,0,1-9,.12c-1.79-.07-2.21.57-2.11,2.22.14,2.35.06,4.71,0,7.06,0,1,.42,2.14-1.38,2.16s-1.51-1-1.51-2.06C125.89,320.54,125.88,316.72,125.88,312.91Zm2.86-5.5c0,1.38,0,2.75,0,4.13,0,.7,0,1.34,1,1.31,3.55-.1,7.14.36,10.65-.34,2.36-.47,3.58-2.6,3.41-5.45-.18-3-1.39-4.65-4-4.95a54,54,0,0,0-5.57-.21C128.75,301.84,128.75,301.85,128.75,307.4Z"/><path class="cls-6" d="M211.6,323c-4.28,4.42-11.57,3.25-14,.48-2.88-3.31-2.72-10.09.42-13,3.47-3.24,9.53-2.92,13.18.72.8-.27.39-.95.41-1.42,0-1,.64-1,1.32-1s1.07.28,1.06,1c-.13,6.09.39,12.19-.3,18.26a5.8,5.8,0,0,1-4.19,4.93,14.35,14.35,0,0,1-9.54,0,4.5,4.5,0,0,1-3.15-3.41c-.12-.53-.83-1.31.22-1.58.62-.16,1.55-.43,1.87.54.49,1.48,1.24,2.67,2.86,3a12,12,0,0,0,6.49-.1,4.9,4.9,0,0,0,3.3-4.42A34.11,34.11,0,0,0,211.6,323Zm.06-6c0-4.33-2.48-6.84-6.75-6.85s-6.92,2.54-6.92,7c0,4.64,2.39,7,7.11,6.94C209.25,324.09,211.67,321.48,211.66,317.07Z"/><path class="cls-4" d="M311.61,311.69c0-4.39,0-8.78,0-13.17,0-1.08-.82-2.72,1.53-2.76,2.51,0,1.66,1.74,1.67,2.88.06,8,.08,16.09,0,24.14,0,1.79.42,2.38,2.29,2.33,5.28-.13,10.56-.05,15.85,0,1,0,2.17-.38,2.14,1.41,0,1.6-1,1.34-2,1.34-6.5,0-13,0-19.5.07-1.62,0-2.08-.47-2-2.07C311.67,321.12,311.61,316.4,311.61,311.69Z"/><path class="cls-7" d="M176.48,326.89c-5.33-.1-7.66-1.39-8.42-4.37-.13-.52-.83-1.34.26-1.56.77-.16,1.79-.54,2.1.86.51,2.28,2.21,3,4.34,3.13a14.23,14.23,0,0,0,4.83-.25,3,3,0,0,0,2.49-3.15c-.07-1.63-1.19-2.36-2.72-2.61-2.4-.4-4.81-.77-7.19-1.27-2.67-.55-3.9-1.91-3.87-4.23a4.36,4.36,0,0,1,3.54-4.6,16,16,0,0,1,8.18,0,4.86,4.86,0,0,1,3.72,3.79c.14.59.46,1.39-.58,1.5-.67.07-1.37.24-1.83-.69a6.62,6.62,0,0,0-9.17-2.57,2.72,2.72,0,0,0-1.46,2.84,2.32,2.32,0,0,0,2.13,2c2.23.41,4.48.73,6.71,1.15,3.59.67,5.11,2.16,5,4.86s-1.91,4.49-5.34,4.92C178.12,326.76,177,326.84,176.48,326.89Z"/><path class="cls-6" d="M245.3,320.74c-.86,3.82-3.66,6-7.92,6.2-4.69.21-8.42-2-9.52-6-1.06-3.8-.91-7.55,2.25-10.37s7-2.8,10.8-1.46c3,1.06,5,4.56,5,7.76,0,1.53-.92,1.23-1.77,1.23-4.23,0-8.46.08-12.68,0-1.71,0-1.88.57-1.5,2a6.27,6.27,0,0,0,5.41,4.9c3.42.46,5.79-.44,7.05-3A2.08,2.08,0,0,1,245.3,320.74Zm-8.84-4.21c1.86,0,3.73-.06,5.59,0,1.34.05,1.47-.58,1.23-1.65-.64-2.81-3.86-5.05-7-4.89A6.44,6.44,0,0,0,230,315.4c-.17,1,.09,1.14.91,1.13C232.73,316.51,234.59,316.53,236.46,316.53Z"/><path class="cls-7" d="M156.41,308.27c6,0,9.46,3.35,9.47,9.28s-3.42,9.36-9.4,9.38c-5.71,0-9.23-3.51-9.26-9.29S150.7,308.29,156.41,308.27Zm7.13,9.37c0-4.88-2.34-7.4-6.94-7.43-4.37,0-6.92,2.61-7,7.21,0,4.82,2.43,7.55,6.85,7.56S163.53,322.42,163.54,317.64Z"/><path class="cls-5" d="M189.17,317.47c0-1.38,0-2.76,0-4.14s.27-3.05-2.1-2.61c-.57.11-.87-.29-.88-.88s.16-1.06.78-.94c2.25.4,2.14-1,2.25-2.55.08-1.1-1.16-3.22,1.12-3.18s1.12,2.15,1.08,3.23c-.07,2,.38,2.87,2.49,2.5.66-.12,1.56-.27,1.54.92s-.9,1-1.57.91c-2.2-.41-2.51.67-2.41,2.55.15,2.83.09,5.68,0,8.51,0,1.9.61,3,2.65,2.83.66,0,1.32-.2,1.33.84,0,.89-.53,1-1.24,1.13-3.21.45-5-1-5-4.24C189.14,320.71,189.17,319.09,189.17,317.47Z"/><path class="cls-8" d="M220,311.2c1.46-2.58,3.69-2.84,6-2.91,1,0,1.22.47,1.19,1.35s-.52.9-1.28.9c-4,0-5.55,1.46-6.05,5.38a80.33,80.33,0,0,0-.21,8.77c0,.8.19,1.65-1.13,1.67s-1.15-.82-1.15-1.62c0-4.55,0-9.1,0-13.66,0-.76-.75-2,1-2.22S219.43,310.15,220,311.2Z"/><path class="cls-9" d="M219.28,231a20.23,20.23,0,0,1-11.06,4.47,22.69,22.69,0,0,1-11.6-2c-1.85-.86-3.42-2.21-3.32-4.4s1.88-3.32,3.8-4a29,29,0,0,1,5.17-1.37c3.51-.51,5.89-2.49,7.77-5.47-2.37-.58-4.82-.77-6.94-2-1-.57-1.49.07-2,.68l-8.38,9.52c-1,1.16-2,2.34-3.1,3.45-4.68,4.85-10.26,4.81-14.87-.11a37.69,37.69,0,0,1-6.24-9.26c-6.24-12.69-9.69-26.25-12.59-40-1.58-7.48-2.83-15-1.86-22.68,1.2-9.49,4-18,13.4-22.49,6.22-3,13-3.43,19.76-2.93a75.85,75.85,0,0,1,18.77,4,2.71,2.71,0,0,0,2.71-.33c5.63-3.92,12-4.46,18.59-4a43.33,43.33,0,0,1,7.95,1c1.1.28,2.05-.35,3.06-.61,11.94-3.06,23.75-3.38,35.26,1.75a32.61,32.61,0,0,1,13.18,10.53c2.89,3.93,2.94,8.7,2.75,13.34-.55,13.45-4.91,25.91-10.24,38.08a112.23,112.23,0,0,1-9.39,17.32c-1,1.52-.4,1.89,1,2.22,3.4.81,6.79.39,10.17-.13,1.53-.23,3.05-.48,4.59-.65,1.7-.19,3.32.06,4.27,1.67,1,1.78.16,3.32-1,4.64a23.08,23.08,0,0,1-11.71,7,33.76,33.76,0,0,1-13.29,1c-2.31-.32-2.72.59-3,2.51-.93,7.57-1.86,15.15-3,22.69-1.68,10.89-8,17-22,17.19-8.88.15-13.55-5.68-14.94-14.35-1.26-7.89-1.12-15.88-1.33-23.84A4.46,4.46,0,0,0,219.28,231Zm-23.2-42.65c-.25,2.67-.63,5.33-.71,8-.27,8.62,5.58,15.92,13.53,17.16,1.28.2,1.85-.05,2.3-1.34,1.23-3.52,2.53-7,4-10.46,3.85-8.93,2.91-18,.71-27a5.73,5.73,0,0,0-5.91-4.54,25.45,25.45,0,0,0-11.71,3c-1.92,1-2.91,2.22-2.21,4.41Q196.08,183,196.08,188.36Zm72.07-1.42c.14,1.7.24,3.4.41,5.1.6,5.9.6,11.7-2.45,17.07-.28.49-.61,1,0,1.49.15,0,.37,0,.44-.12a16.21,16.21,0,0,0,1-1.4,135.42,135.42,0,0,0,14.44-32.93c1.94-6.82,3.42-13.72,3.24-20.87-.08-3.11-.65-6-2.88-8.56-6.92-7.87-15.72-11.53-26-12.07a41.87,41.87,0,0,0-13.07,1.14c.61.38.86.57,1.13.7,8.69,4.22,15.18,10.79,20,19,3.31,5.59,5.93,11.39,4.41,18.22a60.81,60.81,0,0,0-.76,6.77A15.34,15.34,0,0,0,268.14,186.93ZM224,221.49c-.08,7.37-.35,14.74.1,22.11.08,4.8.06,9.63,1.22,14.3,1.12,4.5,3.32,8.43,8.39,9.49,9.7,2,18.31-3.64,19.94-13.38,1.73-10.34,3.07-20.74,3.86-31.2.27-3.59,1.44-6.51,5-7.94,1-.42,1-.77.37-1.53-4-5-6.51-10.86-9.48-16.44C250.49,191.52,248,186,247,179.85c-1.38-8.23,2.68-13.75,11-14.51,2.05-.19,4.14,0,6.43,0A47.12,47.12,0,0,0,255,149.74c-8.83-9.68-19.89-14.2-32.89-13.48-17.33,1-25.17,17.49-25.81,33.19.87-.4,1.66-.78,2.47-1.11,3.63-1.49,7.32-2.7,11.33-2.43,5,.33,8.54,2.87,9.8,7.7,2.75,10.52,3.28,21-1.46,31.22-1.23,2.64-2.13,5.44-3.16,8.17-.24.64-.74,1.47.61,1.51C220.52,214.65,222.59,217.67,224,221.49Zm-20.68-81.27c-7.27-3.16-19.7-4.56-27.17-3.05-8.27,1.66-13.91,6.35-16.49,14.49a39.49,39.49,0,0,0-1.45,17.12,189.48,189.48,0,0,0,9.48,39c2.36,6.68,5,13.25,9.79,18.66,3.1,3.5,5.91,3.61,9.08.2,3.82-4.11,7.44-8.4,11.2-12.56.81-.9.41-1.3-.25-1.95-4.35-4.26-6.73-9.52-6.34-15.55.5-7.8.48-15.57.58-23.37C191.9,161.06,194.71,149.56,203.31,140.21ZM263,206.12a23.91,23.91,0,0,0,1.61-11.52c-.51-5.24-1.4-10.48-.68-15.78q.51-3.74.94-7.49c.09-.8.19-1.57-1.06-1.72-8.7-1.07-14.63,1.14-12.22,11.47C253.65,190,258.6,197.58,263,206.12Zm-64.69,23c7.15,4.06,16.7,2,21-4.77.92-1.43.08-3.86-1.45-5-1.71-1.23-2.86-.31-3.94,1-.58.68-1.17,1.34-1.71,2.06a12.87,12.87,0,0,1-8.2,5.21C202.15,227.91,200.33,228.52,198.28,229.07Zm85.43-9.67c-1.1.18-2.19.41-3.29.53-4.35.47-8.73,1-12.89-1-3.05-1.41-5.55.13-5.77,3.59-.08,1.2.08,2.1,1.48,2.27C270.7,225.73,277.7,224.71,283.71,219.4Z"/><path class="cls-10" d="M292.85,326c-8.11,0-13.45-5.76-13.39-14.38s5.23-14,13.38-14.05,13.47,5.77,13.38,14.36S300.94,326.07,292.85,326Z"/><path class="cls-11" d="M128.75,307.4c0-5.55,0-5.57,5.49-5.51a54,54,0,0,1,5.57.21c2.58.29,3.79,1.91,4,4.95.16,2.85-1,5-3.41,5.45-3.52.7-7.1.24-10.65.34-.93,0-1-.61-1-1.31C128.76,310.15,128.75,308.78,128.75,307.4Z"/><path class="cls-11" d="M211.66,317.07c0,4.41-2.41,7-6.56,7-4.71,0-7.11-2.3-7.11-6.94,0-4.42,2.54-7,6.92-7S211.65,312.74,211.66,317.07Z"/><path class="cls-12" d="M236.46,316.53c-1.86,0-3.73,0-5.59,0-.82,0-1.08-.17-.91-1.13a6.44,6.44,0,0,1,6.29-5.39c3.18-.17,6.39,2.08,7,4.89.24,1.07.11,1.7-1.23,1.65C240.19,316.47,238.32,316.53,236.46,316.53Z"/><path class="cls-11" d="M163.54,317.64c0,4.78-2.49,7.36-7.06,7.35s-6.9-2.74-6.85-7.56c0-4.6,2.6-7.24,7-7.21C161.2,310.25,163.55,312.76,163.54,317.64Z"/><path class="cls-13" d="M224,221.49c-1.39-3.81-3.47-6.84-8-7-1.35,0-.85-.88-.61-1.51,1-2.74,1.93-5.53,3.16-8.17,4.74-10.22,4.21-20.69,1.46-31.22-1.26-4.83-4.8-7.37-9.8-7.7-4-.27-7.7.95-11.33,2.43-.81.33-1.6.72-2.47,1.11.64-15.7,8.48-32.23,25.81-33.19,13-.72,24.06,3.8,32.89,13.48a47.12,47.12,0,0,1,9.37,15.57c-2.3,0-4.38-.16-6.43,0-8.29.76-12.35,6.28-11,14.51,1,6.11,3.48,11.68,6.35,17.05,3,5.58,5.44,11.47,9.48,16.44.61.75.68,1.11-.37,1.53-3.55,1.43-4.72,4.35-5,7.94-.78,10.46-2.12,20.86-3.86,31.2-1.63,9.74-10.24,15.41-19.94,13.38-5.07-1.06-7.27-5-8.39-9.49-1.16-4.66-1.15-9.5-1.22-14.3.82-.41.73-1.18.73-1.9q0-9.2,0-18.41C224.81,222.58,224.9,221.8,224,221.49Z"/><path class="cls-14" d="M203.31,140.21c-8.6,9.35-11.41,20.85-11.57,33-.1,7.8-.08,15.57-.58,23.37-.38,6,2,11.29,6.34,15.55.66.65,1.06,1.05.25,1.95-3.76,4.16-7.38,8.45-11.2,12.56-3.17,3.41-6,3.3-9.08-.2-4.79-5.41-7.42-12-9.79-18.66a189.48,189.48,0,0,1-9.48-39,39.49,39.49,0,0,1,1.45-17.12c2.58-8.14,8.22-12.83,16.49-14.49C183.61,135.65,196,137,203.31,140.21Z"/><path class="cls-14" d="M268.08,180.49a60.81,60.81,0,0,1,.76-6.77c1.52-6.83-1.1-12.63-4.41-18.22-4.86-8.22-11.35-14.79-20-19-.28-.13-.53-.32-1.13-.7a41.87,41.87,0,0,1,13.07-1.14c10.26.54,19.06,4.19,26,12.07,2.23,2.54,2.8,5.45,2.88,8.56.18,7.14-1.3,14-3.24,20.87a135.42,135.42,0,0,1-14.44,32.93,16.21,16.21,0,0,1-1,1.4c-.07.1-.29.08-.44.12-.62-.5-.28-1,0-1.49,3.05-5.37,3.06-11.17,2.45-17.07-.17-1.69-.28-3.4-.41-5.1A7.48,7.48,0,0,0,268.08,180.49Z"/><path class="cls-14" d="M196.08,177.62c-.7-2.19.29-3.41,2.21-4.41a25.45,25.45,0,0,1,11.71-3,5.73,5.73,0,0,1,5.91,4.54c2.19,9,3.14,18.09-.71,27-1.48,3.43-2.78,6.93-4,10.46-.45,1.29-1,1.54-2.3,1.34-8-1.24-13.8-8.54-13.53-17.16.08-2.67.47-5.34.71-8C197.43,187,197.43,179,196.08,177.62Zm14-5.26c-1.39.13-2.86-.11-3.26,1.39s.76,2.23,1.78,2.9a4,4,0,0,0,2,.7c1.63,0,3.27-.57,3.62-2.27.39-1.88-1.46-2-2.71-2.4A11.19,11.19,0,0,0,210,172.36Z"/><path class="cls-15" d="M263,206.12c-4.37-8.54-9.32-16.13-11.4-25-2.41-10.34,3.52-12.54,12.22-11.47,1.25.15,1.15.92,1.06,1.72q-.43,3.75-.94,7.49c-.72,5.3.17,10.53.68,15.78A23.91,23.91,0,0,1,263,206.12Zm-4.89-34.8c-1.35.46-3.68,0-3.82,2.19-.09,1.44,1.64,2.06,3.09,2.12,1.64.07,3.83-1.72,3.62-2.95C260.71,171.09,259.33,171.49,258.09,171.32Z"/><path class="cls-15" d="M198.28,229.07c2.05-.55,3.87-1.16,5.74-1.51a12.87,12.87,0,0,0,8.2-5.21c.54-.71,1.13-1.38,1.71-2.06,1.08-1.26,2.23-2.18,3.94-1,1.53,1.1,2.37,3.53,1.45,5C215,231,205.43,233.13,198.28,229.07Z"/><path class="cls-15" d="M283.71,219.4c-6,5.31-13,6.33-20.47,5.43-1.4-.17-1.55-1.07-1.48-2.27.22-3.45,2.72-5,5.77-3.59,4.16,1.93,8.54,1.42,12.89,1C281.52,219.82,282.61,219.58,283.71,219.4Z"/><path class="cls-13" d="M224,221.49c.92.31.82,1.09.82,1.81q0,9.2,0,18.41c0,.72.09,1.49-.73,1.9C223.64,236.23,223.91,228.86,224,221.49Z"/><path class="cls-13" d="M196.08,177.62c1.35,1.4,1.34,9.34,0,10.73Q196.08,183,196.08,177.62Z"/><path class="cls-4" d="M268.08,180.49a7.48,7.48,0,0,1,.06,6.44A15.34,15.34,0,0,1,268.08,180.49Z"/><path class="cls-9" d="M210,172.36a11.19,11.19,0,0,1,1.46.31c1.25.42,3.1.53,2.71,2.4-.35,1.69-2,2.27-3.62,2.27a4,4,0,0,1-2-.7c-1-.66-2.14-1.53-1.78-2.9S208.66,172.49,210,172.36Z"/><path class="cls-12" d="M258.09,171.32c1.24.17,2.62-.23,2.89,1.36.21,1.23-2,3-3.62,2.95-1.46-.06-3.19-.68-3.09-2.12C254.41,171.29,256.74,171.79,258.09,171.32Z"/></svg>