<svg id="Layer_1" data-name="Layer 1" xmlns="http://www.w3.org/2000/svg" viewBox="0 0 516 461"><defs><style>.cls-1{fill:#fefefe;}.cls-2{fill:#3571a3;}.cls-3{fill:#fdd042;}.cls-4{fill:#fdfdfd;}.cls-5{fill:#fefefd;}</style></defs><title>full</title><path class="cls-1" d="M237.42,156.11h84.51c.52,0,.66.09.66.64q0,90.49,0,181c0,.6-.14.68-.7.68q-90.6,0-181.2,0c-.56,0-.7-.09-.7-.68q0-90.46,0-180.91c0-.63.16-.72.74-.72q41.79,0,83.59,0c-.12.23-.33.14-.51.15-3,.14-6,.42-8.92.83a61.17,61.17,0,0,0-13.58,3.29A25.2,25.2,0,0,0,191,167.07a12.5,12.5,0,0,0-3.42,8.64c.09,6.88,0,13.76,0,20.65,0,.63.3.6.74.6l28.76.12c4.68,0,9.35,0,14,.05.5,0,.73.1.73.65,0,1.59.06,3.18,0,4.77,0,.64-.27.84-.91.84-3.63,0-7.26,0-10.89,0q-22.78,0-45.57,0a81.92,81.92,0,0,0-8.82.19A23.39,23.39,0,0,0,151,211a35.22,35.22,0,0,0-7.81,13.73c-2.15,6.55-2.79,13.34-3,20.19a95.18,95.18,0,0,0,.82,15.54,57.12,57.12,0,0,0,4.34,15.92c2.31,5.09,5.48,9.48,10.31,12.49a17.91,17.91,0,0,0,8.83,3.1c5.5.19,11,0,16.52.06.4,0,.56-.13.54-.53,0-.21,0-.43,0-.64q.1-10.79.2-21.57a26.85,26.85,0,0,1,1-7.37c1.75-6,4.93-10.91,10.39-14.15a22.88,22.88,0,0,1,11.66-3.17c4.67,0,9.35-.13,14-.15,11.51-.06,23,0,34.53-.29a25.06,25.06,0,0,0,11.43-3.33c6.31-3.46,9.71-8.94,10.68-16a56,56,0,0,0,.22-7.54q0-20,0-40.09a2.84,2.84,0,0,0-.05-.71,20.14,20.14,0,0,0-6.08-10.32,33.88,33.88,0,0,0-12.69-6.8,74.85,74.85,0,0,0-17.26-3A6.39,6.39,0,0,1,237.42,156.11ZM187.58,294.93q0,11.11,0,22.21a3.53,3.53,0,0,0,.07.92A20.19,20.19,0,0,0,195,329.11a36.23,36.23,0,0,0,12.34,6,84.07,84.07,0,0,0,21.84,3,124.34,124.34,0,0,0,16.76-.66,69.26,69.26,0,0,0,14.11-2.88c4.61-1.52,8.83-3.67,12.16-7.34a12.44,12.44,0,0,0,3.52-7.44c.14-1.72.11-3.46.1-5.19,0-4.27-.06-8.54-.09-12.81,0-1.31,0-2.61,0-3.92,0-.5-.15-.64-.64-.64-3.7,0-7.4-.06-11.1-.07-10.56-.05-21.12,0-31.68-.12-.59,0-.77-.16-.75-.75,0-1.54,0-3.09,0-4.63,0-.53.14-.68.68-.68,4.53,0,9.06,0,13.6-.06,3.84-.07,7.69,0,11.53,0,12.65,0,25.3,0,37.94-.18a20.87,20.87,0,0,0,4.74-.38,24.57,24.57,0,0,0,14-9,41.45,41.45,0,0,0,8.38-24.56c.17-5.55,0-11.11.05-16.66a51.76,51.76,0,0,0-1.27-12.56,43.72,43.72,0,0,0-6.47-15.29A23.58,23.58,0,0,0,304,203.5a12.85,12.85,0,0,0-4.5-1.22c-5.62,0-11.25,0-16.87,0-.69,0-.87.19-.87.87,0,7.21-.13,14.43-.17,21.64a27.59,27.59,0,0,1-2.4,11.25,21.62,21.62,0,0,1-13.76,12.5,34.93,34.93,0,0,1-10.26,1.26q-9.65.1-19.29.14-13.31.06-26.63.08a4.48,4.48,0,0,0-.92.09,45.69,45.69,0,0,0-5.5,1.45c-5,1.73-9.14,4.49-12,9a23.22,23.22,0,0,0-3.26,12.14C187.5,280.12,187.56,287.53,187.58,294.93Z"/><path class="cls-2" d="M237.42,156.11a6.39,6.39,0,0,0,2.21.27,74.85,74.85,0,0,1,17.26,3,33.88,33.88,0,0,1,12.69,6.8,20.14,20.14,0,0,1,6.08,10.32,2.84,2.84,0,0,1,.05.71q0,20,0,40.09a56,56,0,0,1-.22,7.54c-1,7-4.37,12.52-10.68,16a25.06,25.06,0,0,1-11.43,3.33c-11.51.32-23,.24-34.53.29-4.67,0-9.35.11-14,.15a22.88,22.88,0,0,0-11.66,3.17c-5.45,3.24-8.64,8.16-10.39,14.15a26.85,26.85,0,0,0-1,7.37q-.08,10.79-.2,21.57c0,.21,0,.43,0,.64,0,.4-.14.53-.54.53-5.51,0-11,.13-16.52-.06a17.91,17.91,0,0,1-8.83-3.1c-4.83-3-8-7.4-10.31-12.49A57.12,57.12,0,0,1,141,260.44a95.18,95.18,0,0,1-.82-15.54c.17-6.85.81-13.63,3-20.19A35.22,35.22,0,0,1,151,211a23.39,23.39,0,0,1,14.63-7.35,81.92,81.92,0,0,1,8.82-.19q22.78,0,45.57,0c3.63,0,7.26,0,10.89,0,.64,0,.87-.19.91-.84.1-1.59,0-3.18,0-4.77,0-.55-.23-.65-.73-.65-4.68,0-9.35,0-14-.05L188.3,197c-.44,0-.74,0-.74-.6,0-6.88.07-13.77,0-20.65a12.5,12.5,0,0,1,3.42-8.64,25.2,25.2,0,0,1,10.35-6.69,61.17,61.17,0,0,1,13.58-3.29c3-.41,5.93-.69,8.92-.83.17,0,.39.08.51-.15Zm-22.93,22a8,8,0,1,0-15.93,0,7.89,7.89,0,0,0,7.6,7.84A8,8,0,0,0,214.49,178.1Z"/><path class="cls-3" d="M187.58,294.93c0-7.4-.08-14.81,0-22.21a23.22,23.22,0,0,1,3.26-12.14c2.81-4.56,7-7.31,12-9a45.69,45.69,0,0,1,5.5-1.45,4.48,4.48,0,0,1,.92-.09q13.31,0,26.63-.08,9.65,0,19.29-.14a34.93,34.93,0,0,0,10.26-1.26A21.62,21.62,0,0,0,279.17,236a27.59,27.59,0,0,0,2.4-11.25c0-7.21.13-14.43.17-21.64,0-.68.19-.87.87-.87,5.62,0,11.25,0,16.87,0a12.85,12.85,0,0,1,4.5,1.22,23.58,23.58,0,0,1,10.72,8.71,43.72,43.72,0,0,1,6.47,15.29,51.76,51.76,0,0,1,1.27,12.56c0,5.55.11,11.11-.05,16.66A41.45,41.45,0,0,1,314,281.28a24.57,24.57,0,0,1-14,9,20.87,20.87,0,0,1-4.74.38c-12.65.21-25.3.15-37.94.18-3.84,0-7.69,0-11.53,0-4.53.08-9.06,0-13.6.06-.53,0-.69.15-.68.68,0,1.54,0,3.09,0,4.63,0,.6.16.74.75.75,10.56.12,21.12.07,31.68.12,3.7,0,7.4.06,11.1.07.49,0,.65.14.64.64,0,1.3,0,2.61,0,3.92,0,4.27.08,8.54.09,12.81,0,1.73,0,3.47-.1,5.19a12.44,12.44,0,0,1-3.52,7.44c-3.33,3.68-7.55,5.82-12.16,7.34a69.26,69.26,0,0,1-14.11,2.88,124.34,124.34,0,0,1-16.76.66,84.07,84.07,0,0,1-21.84-3,36.23,36.23,0,0,1-12.34-6,20.19,20.19,0,0,1-7.35-11.05,3.53,3.53,0,0,1-.07-.92Q187.58,306,187.58,294.93ZM248.8,316a8,8,0,1,0,15.91.15A8,8,0,0,0,248.8,316Z"/><path class="cls-4" d="M214.49,178.1a8,8,0,0,1-8.32,7.86,7.89,7.89,0,0,1-7.6-7.84,8,8,0,1,1,15.93,0Z"/><path class="cls-5" d="M248.8,316a8,8,0,1,1,7.83,8A7.9,7.9,0,0,1,248.8,316Z"/></svg>