<svg width="532" height="312" viewBox="0 0 532 312" fill="none" xmlns="http://www.w3.org/2000/svg">
<path d="M169.883 140.155V148.117H176.022V152.463H169.883V172.855C169.883 174.172 170.156 175.165 170.703 175.834C171.25 176.482 172.182 176.806 173.499 176.806C174.148 176.806 175.039 176.685 176.174 176.441V181C174.695 181.405 173.256 181.608 171.858 181.608C169.346 181.608 167.451 180.848 166.175 179.329C164.899 177.809 164.26 175.651 164.26 172.855V152.463H158.274V148.117H164.26V140.155H169.883ZM196.262 181.608C191.805 181.608 188.178 180.149 185.382 177.232C182.586 174.294 181.188 170.373 181.188 165.47V164.437C181.188 161.175 181.806 158.268 183.042 155.715C184.298 153.142 186.04 151.136 188.269 149.698C190.518 148.239 192.949 147.51 195.563 147.51C199.838 147.51 203.16 148.918 205.531 151.734C207.901 154.55 209.087 158.582 209.087 163.829V166.169H186.81C186.891 169.411 187.833 172.035 189.637 174.041C191.46 176.026 193.77 177.019 196.566 177.019C198.551 177.019 200.233 176.614 201.611 175.803C202.988 174.993 204.194 173.919 205.227 172.582L208.661 175.256C205.906 179.491 201.773 181.608 196.262 181.608ZM195.563 152.129C193.294 152.129 191.389 152.96 189.849 154.621C188.31 156.262 187.357 158.572 186.993 161.55H203.464V161.125C203.302 158.268 202.532 156.059 201.155 154.499C199.777 152.919 197.913 152.129 195.563 152.129ZM228.81 177.019C230.816 177.019 232.568 176.411 234.068 175.195C235.567 173.98 236.398 172.46 236.56 170.637H241.878C241.777 172.521 241.128 174.314 239.933 176.016C238.738 177.718 237.137 179.075 235.131 180.088C233.146 181.101 231.039 181.608 228.81 181.608C224.333 181.608 220.767 180.119 218.113 177.14C215.479 174.142 214.162 170.049 214.162 164.863V163.92C214.162 160.719 214.749 157.873 215.925 155.381C217.1 152.889 218.781 150.954 220.969 149.576C223.178 148.198 225.781 147.51 228.78 147.51C232.467 147.51 235.526 148.614 237.958 150.822C240.409 153.03 241.716 155.897 241.878 159.423H236.56C236.398 157.295 235.587 155.553 234.129 154.195C232.69 152.818 230.907 152.129 228.78 152.129C225.923 152.129 223.705 153.162 222.124 155.229C220.564 157.275 219.784 160.243 219.784 164.133V165.197C219.784 168.986 220.564 171.903 222.124 173.949C223.684 175.996 225.913 177.019 228.81 177.019ZM253.822 152.099C256.314 149.039 259.555 147.51 263.547 147.51C270.496 147.51 274.001 151.43 274.062 159.271V181H268.44V159.24C268.419 156.87 267.872 155.117 266.798 153.983C265.745 152.848 264.094 152.281 261.845 152.281C260.021 152.281 258.421 152.767 257.043 153.74C255.665 154.712 254.592 155.989 253.822 157.569V181H248.199V134.32H253.822V152.099ZM302.781 181C302.457 180.352 302.193 179.197 301.991 177.535C299.377 180.25 296.257 181.608 292.63 181.608C289.389 181.608 286.725 180.696 284.638 178.873C282.571 177.029 281.538 174.699 281.538 171.883C281.538 168.459 282.835 165.805 285.428 163.92C288.041 162.016 291.709 161.064 296.429 161.064H301.9V158.481C301.9 156.515 301.312 154.955 300.137 153.8C298.962 152.625 297.23 152.038 294.94 152.038C292.934 152.038 291.253 152.544 289.895 153.557C288.538 154.57 287.859 155.796 287.859 157.235H282.206C282.206 155.593 282.784 154.013 283.939 152.494C285.114 150.954 286.694 149.738 288.68 148.847C290.685 147.955 292.884 147.51 295.274 147.51C299.063 147.51 302.031 148.462 304.179 150.366C306.327 152.25 307.441 154.854 307.522 158.177V173.311C307.522 176.33 307.907 178.731 308.677 180.514V181H302.781ZM293.451 176.715C295.214 176.715 296.885 176.259 298.465 175.347C300.046 174.436 301.19 173.25 301.9 171.792V165.045H297.493C290.604 165.045 287.16 167.061 287.16 171.093C287.16 172.855 287.748 174.233 288.923 175.226C290.098 176.219 291.607 176.715 293.451 176.715ZM335.481 172.278C335.481 170.758 334.904 169.583 333.749 168.753C332.614 167.902 330.619 167.172 327.762 166.564C324.926 165.957 322.667 165.227 320.985 164.376C319.324 163.525 318.088 162.512 317.277 161.337C316.487 160.162 316.092 158.764 316.092 157.143C316.092 154.449 317.227 152.169 319.496 150.305C321.785 148.442 324.703 147.51 328.248 147.51C331.976 147.51 334.995 148.472 337.305 150.397C339.635 152.321 340.8 154.783 340.8 157.782H335.147C335.147 156.242 334.488 154.915 333.172 153.8C331.875 152.686 330.234 152.129 328.248 152.129C326.202 152.129 324.601 152.575 323.447 153.466C322.292 154.358 321.714 155.523 321.714 156.961C321.714 158.318 322.251 159.342 323.325 160.03C324.399 160.719 326.334 161.378 329.13 162.006C331.946 162.634 334.225 163.384 335.968 164.255C337.71 165.126 338.996 166.18 339.827 167.415C340.678 168.631 341.104 170.12 341.104 171.883C341.104 174.821 339.928 177.181 337.578 178.964C335.228 180.726 332.179 181.608 328.431 181.608C325.797 181.608 323.467 181.142 321.441 180.21C319.415 179.278 317.824 177.981 316.669 176.32C315.535 174.638 314.968 172.825 314.968 170.88H320.59C320.691 172.764 321.441 174.263 322.839 175.378C324.257 176.472 326.121 177.019 328.431 177.019C330.558 177.019 332.26 176.593 333.536 175.742C334.833 174.871 335.481 173.716 335.481 172.278ZM356.056 140.155V148.117H362.195V152.463H356.056V172.855C356.056 174.172 356.329 175.165 356.876 175.834C357.423 176.482 358.355 176.806 359.672 176.806C360.321 176.806 361.212 176.685 362.347 176.441V181C360.868 181.405 359.429 181.608 358.031 181.608C355.519 181.608 353.624 180.848 352.348 179.329C351.072 177.809 350.433 175.651 350.433 172.855V152.463H344.446V148.117H350.433V140.155H356.056ZM384.684 153.162C383.833 153.02 382.911 152.949 381.918 152.949C378.231 152.949 375.729 154.52 374.412 157.66V181H368.789V148.117H374.26L374.351 151.916C376.195 148.978 378.808 147.51 382.192 147.51C383.286 147.51 384.116 147.651 384.684 147.935V153.162Z" fill="black"/>
<path d="M326.723 143.818C329.691 143.818 332.097 141.412 332.097 138.443C332.097 135.475 329.691 133.068 326.723 133.068C323.755 133.068 321.349 135.475 321.349 138.443C321.349 141.412 323.755 143.818 326.723 143.818Z" fill="#FF0000"/>
<path d="M369.713 143.818C372.681 143.818 375.087 141.412 375.087 138.443C375.087 135.475 372.681 133.068 369.713 133.068C366.745 133.068 364.339 135.475 364.339 138.443C364.339 141.412 366.745 143.818 369.713 143.818Z" fill="#FF0000"/>
</svg>
