<?xml version="1.0" encoding="UTF-8" standalone="no"?>
<svg width="78px" height="128px" viewBox="0 0 78 128" version="1.1" xmlns="http://www.w3.org/2000/svg" xmlns:xlink="http://www.w3.org/1999/xlink" xmlns:sketch="http://www.bohemiancoding.com/sketch/ns">
    <!-- Generator: Sketch 3.4.4 (17249) - http://www.bohemiancoding.com/sketch -->
    <title>logo-enterprise</title>
    <desc>Created with Sketch.</desc>
    <defs></defs>
    <g id="Page-1" stroke="none" stroke-width="1" fill="none" fill-rule="evenodd" sketch:type="MSPage">
        <g id="homepage-v3.5" sketch:type="MSArtboardGroup" transform="translate(-661.000000, -3406.000000)" stroke="#00A1DF" stroke-width="2" stroke-linecap="round" stroke-linejoin="round">
            <g id="_features" sketch:type="MSLayerGroup" transform="translate(169.000000, 2549.000000)">
                <g id="features-enterprise" transform="translate(1.000000, 858.000000)" sketch:type="MSShapeGroup">
                    <g id="blurb" transform="translate(20.000000, 0.000000)">
                        <g id="logo" transform="translate(135.000000, 0.000000)">
                            <path d="M367.010149,47.4179951 L367.010149,16.0124748 L376.043664,10.7740771 L385.077179,16.0124748 L385.077179,36.9521058 L394.112867,42.1852686 L394.117213,63.1275171 M357.977069,70.8027644 L357.977069,52.6550841 L367.010149,47.4179951 M357.977069,94.5435073 L366.991896,99.7679452 L366.991896,110.237761 M339.904389,99.2278773 L339.911343,84.0640944 L348.9479,78.8322404 L357.97533,84.063222 L357.977069,94.5435073 M367.010149,47.4179951 L367.010149,89.2990022 L367.010149,47.4179951 Z M367.010149,16.0124748 L376.043664,21.2473825 L385.077179,16.0124748 M376.043664,16.0124748 L376.043664,0.306006504 L376.043664,16.0124748 Z M376.043664,21.2473825 L376.043664,119.835092 L376.043664,21.2473825 Z M385.077179,36.9521058 L385.077179,55.3357931 L385.077179,36.9521058 Z M394.108955,102.738755 L394.117213,73.5973326 L394.108955,102.738755 Z M355.251716,73.5380037 C355.251716,75.0487108 356.472062,76.2736792 357.977938,76.2736792 C359.482075,76.2736792 360.702856,75.0487108 360.702856,73.5380037 C360.702856,72.0277328 359.482075,70.8027644 357.977938,70.8027644 C356.472062,70.8027644 355.251716,72.0277328 355.251716,73.5380037 Z M385.037196,86.5615817 C383.531755,86.5615817 382.311409,87.7865501 382.311409,89.2972572 C382.311409,90.8075281 383.531755,92.0324965 385.037196,92.0324965 C386.541768,92.0324965 387.762548,90.8075281 387.762548,89.2972572 C387.762548,87.7865501 386.541768,86.5615817 385.037196,86.5615817 L385.037196,86.5615817 Z M339.910474,99.2278773 C338.405467,99.2278773 337.185121,100.452846 337.185121,101.963553 C337.185121,103.473824 338.405467,104.698792 339.910474,104.698792 C341.41548,104.698792 342.635826,103.473824 342.635826,101.963553 C342.635826,100.452846 341.41548,99.2278773 339.910474,99.2278773 L339.910474,99.2278773 Z M376.008027,119.835092 C374.502586,119.835092 373.28224,121.06006 373.28224,122.570331 C373.28224,124.080602 374.502586,125.306007 376.008027,125.306007 C377.512599,125.306007 378.732945,124.080602 378.732945,122.570331 C378.732945,121.06006 377.512599,119.835092 376.008027,119.835092 L376.008027,119.835092 Z M394.110694,102.738755 C392.605687,102.738755 391.384907,103.963724 391.384907,105.473995 C391.384907,106.984702 392.605687,108.20967 394.110694,108.20967 C395.6157,108.20967 396.836046,106.984702 396.836046,105.473995 C396.836046,103.963724 395.6157,102.738755 394.110694,102.738755 L394.110694,102.738755 Z M385.077179,55.3357931 C383.571738,55.3357931 382.351392,56.5607615 382.351392,58.0714687 C382.351392,59.5817396 383.571738,60.806708 385.077179,60.806708 C386.582185,60.806708 387.802531,59.5817396 387.802531,58.0714687 C387.802531,56.5607615 386.582185,55.3357931 385.077179,55.3357931 L385.077179,55.3357931 Z M412.165555,104.998491 L412.165555,94.5182052 L403.167677,89.2994384 L403.150293,68.3567537 L394.117213,63.1275171 L385.036761,68.3798745 L385.036761,86.5615817 M339.911343,84.0640944 L348.943988,89.2972572 L357.97533,84.063222 M348.943988,89.2972572 L348.940512,110.238633 L348.943988,89.2972572 Z M348.940512,84.063222 L348.9479,68.3615524 L348.940512,84.063222 Z M391.384907,106.580305 L385.090651,110.228163 L391.384907,106.580305 Z" id="logo-enterprise"></path>
                        </g>
                    </g>
                </g>
            </g>
        </g>
    </g>
</svg>