<svg width="154" height="55" viewBox="0 0 154 55" fill="none" xmlns="http://www.w3.org/2000/svg">
<g clip-path="url(#clip0)">
<g clip-path="url(#clip1)">
<rect width="0" height="0" transform="translate(-229.203 -1328.47)" fill="white"/>
</g>
</g>
<path d="M85.813 35.1562H85.1486L73.5835 18.3744V35.1562H72.9068V17.2425H73.5835L85.1486 33.9874V17.2425H85.813V35.1562ZM94.951 34.4919H104.142V35.1562H94.2743V17.2425H94.951V34.4919ZM111.483 27.5897V35.1562H110.819V17.2425H116.417C118.246 17.2425 119.665 17.706 120.674 18.6328C121.691 19.5515 122.2 20.831 122.2 22.4715C122.2 24.0955 121.703 25.3505 120.711 26.2363C119.727 27.1221 118.324 27.5733 116.503 27.5897H111.483ZM111.483 26.9253H116.417C118.033 26.9253 119.288 26.5357 120.182 25.7565C121.084 24.9773 121.535 23.8905 121.535 22.4961C121.535 21.0525 121.084 19.9288 120.182 19.1249C119.288 18.3129 118.033 17.9069 116.417 17.9069H111.483V26.9253Z" fill="#00A1DF"/>
<defs>
<clipPath id="clip0">
<rect width="30.4688" height="50" fill="white" transform="translate(29 2)"/>
</clipPath>
<clipPath id="clip1">
<rect width="0" height="0" fill="white" transform="translate(-229.203 -1328.47)"/>
</clipPath>
</defs>
</svg>
