<svg width="154" height="55" viewBox="0 0 154 55" fill="none" xmlns="http://www.w3.org/2000/svg">
<path fill-rule="evenodd" clip-rule="evenodd" d="M26.48 29.2523C26.48 28.8059 26.2413 28.4092 25.9072 28.2108L16.3128 22.4575C16.1696 22.3583 15.9787 22.3087 15.7877 22.3087H15.6923C15.5013 22.3087 15.3104 22.3583 15.1672 22.4575L5.5728 28.2108C5.23867 28.4092 5 28.8059 5 29.2523V44.677C5 44.8754 5.09547 45.0738 5.2864 45.173C5.47733 45.2721 5.66827 45.2721 5.8592 45.173L11.5395 41.8004C11.9213 41.602 12.1123 41.2052 12.1123 40.7588V33.5672C12.1123 33.1209 12.3509 32.7241 12.6851 32.5257L15.1195 31.0874C15.3104 30.9882 15.5013 30.9386 15.6923 30.9386C15.8832 30.9386 16.0741 30.9882 16.2651 31.0874L18.6995 32.5257C19.0813 32.7241 19.2723 33.1209 19.2723 33.5672V40.7588C19.2723 41.2052 19.5109 41.602 19.8451 41.8004L25.5253 45.173C25.7163 45.2721 25.9072 45.2721 26.0981 45.173C26.2891 45.0738 26.3845 44.8754 26.3845 44.677L26.48 29.2523Z" fill="black"/>
<path fill-rule="evenodd" clip-rule="evenodd" d="M77.6501 8.0744C77.4591 7.9752 77.2682 7.9752 77.0773 8.0744C76.8864 8.17359 76.7909 8.37198 76.7909 8.57037V23.8462C76.7909 23.995 76.6954 24.1438 76.6 24.1934C76.4568 24.2926 76.3135 24.2926 76.2181 24.1934L73.8314 22.7551C73.4973 22.5567 73.02 22.5567 72.6858 22.7551L63.0914 28.5084C62.7095 28.7068 62.5186 29.1035 62.5186 29.5499V41.0564C62.5186 41.5028 62.7573 41.8996 63.0914 42.098L72.6858 47.8512C73.0677 48.0496 73.4973 48.0496 73.8314 47.8512L83.4258 42.098C83.76 41.8996 83.9986 41.5028 83.9986 41.0564V12.3893C83.9986 11.943 83.76 11.5462 83.4258 11.3478L77.6501 8.0744ZM76.7432 37.287C76.7432 37.3862 76.6954 37.4854 76.6 37.535L73.3064 39.5189C73.2109 39.5685 73.1154 39.5685 73.02 39.5189L69.7264 37.535C69.6309 37.4854 69.5832 37.3862 69.5832 37.287V33.3193C69.5832 33.2201 69.6309 33.1209 69.7264 33.0713L73.02 31.0874C73.1154 31.0378 73.2109 31.0378 73.3064 31.0874L76.6 33.0713C76.6954 33.1209 76.7432 33.2201 76.7432 33.3193V37.287Z" fill="black"/>
<path fill-rule="evenodd" clip-rule="evenodd" d="M111.923 33.2201C112.257 33.0217 112.496 32.625 112.496 32.1786V29.4011C112.496 28.9548 112.257 28.558 111.923 28.3596L102.376 22.6064C101.994 22.408 101.565 22.408 101.23 22.6064L91.636 28.3596C91.3019 28.558 91.0632 28.9548 91.0632 29.4011V40.9077C91.0632 41.354 91.3019 41.7508 91.636 41.9492L101.135 47.6032C101.469 47.8016 101.899 47.8016 102.281 47.6032L108.056 44.2802C108.247 44.1811 108.343 43.9827 108.343 43.7347C108.343 43.5363 108.247 43.3379 108.056 43.1891L98.4142 37.4359C98.2232 37.3367 98.1278 37.1383 98.1278 36.8903V33.2697C98.1278 33.0713 98.2232 32.8729 98.4142 32.7241L101.421 30.9387C101.612 30.8395 101.803 30.8395 101.994 30.9387L105.001 32.7241C105.192 32.8233 105.288 33.0217 105.288 33.2697V36.0967C105.288 36.2951 105.383 36.4935 105.574 36.5927C105.765 36.6919 105.956 36.6919 106.147 36.5927L111.923 33.2201Z" fill="black"/>
<path fill-rule="evenodd" clip-rule="evenodd" d="M43.9026 22.5567C44.2368 22.3583 44.7141 22.3583 45.0482 22.5567L54.6426 28.31C55.0245 28.5084 55.2154 28.9051 55.2154 29.3515V40.858C55.2154 41.3044 54.9768 41.7012 54.6426 41.8996L45.0482 47.6528C44.6664 47.8512 44.2368 47.8512 43.9026 47.6528L34.3082 41.8996C33.9741 41.7012 33.7354 41.3044 33.7354 40.858V29.3515C33.7354 28.9051 33.9741 28.5084 34.3082 28.31L43.9026 22.5567Z" fill="#80BD01"/>
<path d="M130.539 47.8016C130.205 47.8016 129.87 47.7024 129.584 47.5537L126.577 45.7186C126.147 45.4706 126.338 45.3714 126.481 45.3218C127.102 45.1234 127.197 45.0738 127.866 44.677C127.913 44.6274 128.009 44.677 128.104 44.677L130.443 46.1153C130.539 46.1649 130.634 46.1649 130.73 46.1153L139.751 40.7093C139.847 40.6597 139.894 40.5605 139.894 40.4613V29.5995C139.894 29.5003 139.847 29.4011 139.751 29.3515L130.73 23.9455C130.634 23.8959 130.539 23.8959 130.443 23.9455L121.374 29.3019C121.278 29.3515 121.231 29.4507 121.231 29.5499V40.3621C121.231 40.4613 121.278 40.5605 121.374 40.6101L123.856 42.098C125.193 42.7923 126.004 41.9988 126.004 41.1556V30.4923C126.004 30.3435 126.1 30.2443 126.29 30.2443H127.436C127.579 30.2443 127.675 30.3435 127.675 30.4923V41.2052C127.675 43.0899 126.72 44.1315 125.002 44.1315C124.477 44.1315 124.047 44.1315 122.901 43.5363L120.515 42.098C119.942 41.7508 119.56 41.106 119.56 40.3621V29.5995C119.56 28.9052 119.942 28.2604 120.515 27.8636L129.584 22.4576C130.157 22.1104 130.921 22.1104 131.493 22.4576L140.515 27.8636C141.088 28.2108 141.47 28.8556 141.47 29.5995V40.4117C141.47 41.106 141.088 41.7508 140.515 42.1476L131.493 47.5537C131.159 47.7024 130.873 47.8016 130.539 47.8016Z" fill="#80BD01"/>
<path d="M133.307 40.362C129.345 40.362 128.534 38.4774 128.534 36.8903C128.534 36.7415 128.629 36.6423 128.773 36.6423H129.918C130.061 36.6423 130.157 36.7415 130.157 36.8903C130.348 38.1302 130.873 38.7253 133.259 38.7253C135.169 38.7253 135.98 38.279 135.98 37.2374C135.98 36.6423 135.742 36.1959 132.782 35.8983C130.3 35.6503 128.773 35.0552 128.773 33.0217C128.773 31.137 130.3 29.9963 132.878 29.9963C135.789 29.9963 137.221 31.0378 137.365 33.2697C137.365 33.3689 137.365 33.4185 137.317 33.4681C137.269 33.5177 137.221 33.5673 137.126 33.5673H135.933C135.789 33.5673 135.694 33.4681 135.694 33.3689C135.407 32.0793 134.739 31.633 132.878 31.633C130.777 31.633 130.539 32.3769 130.539 32.9721C130.539 33.6664 130.825 33.8648 133.641 34.2616C136.41 34.6584 137.746 35.204 137.746 37.1878C137.794 39.1717 136.171 40.362 133.307 40.362Z" fill="#80BD01"/>
<path d="M145.766 22.4576V22.7551H145.002V24.8382H144.715V22.7551H143.952V22.4576H145.766Z" fill="#80BD01"/>
<path d="M146.052 22.4576H146.482L147.15 24.4414L147.77 22.4576H148.2V24.7886H147.914V23.3999C147.914 23.3503 147.914 23.2511 147.914 23.1519C147.914 23.0527 147.914 22.9039 147.914 22.8047L147.293 24.7886H147.007L146.338 22.8047V22.8543C146.338 22.9039 146.338 23.0031 146.338 23.1023C146.338 23.2015 146.338 23.3007 146.338 23.3503V24.739H146.052V22.4576V22.4576Z" fill="#80BD01"/>
<path fill-rule="evenodd" clip-rule="evenodd" d="M101.66 32.6745C101.708 32.6249 101.803 32.6249 101.899 32.6745L103.76 33.7656C103.808 33.8152 103.856 33.8648 103.856 33.964V36.1463C103.856 36.2455 103.808 36.295 103.76 36.3446L101.899 37.4358C101.851 37.4854 101.755 37.4854 101.66 37.4358L99.8461 36.3446C99.7984 36.295 99.7507 36.2455 99.7507 36.1463V33.964C99.7507 33.8648 99.7984 33.8152 99.8461 33.7656L101.66 32.6745Z" fill="#80BD01"/>
</svg>
