<svg width="154" height="55" viewBox="0 0 154 55" fill="none" xmlns="http://www.w3.org/2000/svg">
<path d="M42.3379 7C42.4946 7.04797 42.6584 7.06802 42.822 7.05924C44.1037 7.12965 45.3727 7.35056 46.603 7.71742C47.6256 8.00951 48.5736 8.51829 49.3828 9.2093C50.0458 9.81127 50.5103 10.6009 50.7147 11.4735C50.7249 11.5247 50.7285 11.577 50.7257 11.6292C50.7257 14.5545 50.7257 17.4863 50.7257 20.4247C50.7467 20.9766 50.7306 21.5293 50.6775 22.079C50.4584 23.6147 49.7202 24.8258 48.3379 25.5893C47.574 26.0307 46.7152 26.2813 45.8341 26.3199C43.3127 26.3901 40.7957 26.3725 38.27 26.3835C37.247 26.3835 36.2218 26.4076 35.2032 26.4164C34.3049 26.4148 33.4228 26.655 32.649 27.1119C31.4551 27.8227 30.7563 28.9021 30.3729 30.2163C30.2254 30.7425 30.1517 31.2867 30.1539 31.8333C30.1422 33.4114 30.1276 34.9889 30.1101 36.5656C30.1101 36.6117 30.1101 36.6599 30.1101 36.706C30.1101 36.7938 30.0794 36.8223 29.9918 36.8223C28.7848 36.8223 27.5821 36.8508 26.3729 36.8091C25.6794 36.7581 25.0118 36.5234 24.4387 36.129C23.3806 35.4708 22.6862 34.5055 22.1802 33.3888C21.691 32.2754 21.3663 31.0965 21.2163 29.8894C21.0636 28.7598 21.0035 27.6195 21.0367 26.48C21.0739 24.9772 21.2141 23.4897 21.6938 22.0505C22.0303 20.9309 22.616 19.9025 23.4069 19.0426C24.2463 18.1359 25.3844 17.5633 26.6117 17.43C27.2545 17.3814 27.8995 17.3675 28.5438 17.3883C31.8706 17.3883 35.1981 17.3883 38.5263 17.3883C39.3215 17.3883 40.1167 17.3883 40.9118 17.3883C41.052 17.3883 41.1024 17.3466 41.1112 17.204C41.1331 16.8552 41.1112 16.5064 41.1112 16.1575C41.1112 16.0369 41.0608 16.0149 40.9513 16.0149C39.9261 16.0149 38.9031 16.0149 37.8845 16.0039L31.5778 15.971C31.4814 15.971 31.4157 15.971 31.4157 15.8394C31.4157 14.33 31.431 12.8183 31.4157 11.3089C31.4129 10.6041 31.6812 9.9253 32.1648 9.41334C32.7877 8.7437 33.5667 8.23937 34.4321 7.94559C35.3929 7.59198 36.391 7.3498 37.4069 7.22378C38.0641 7.13383 38.7059 7.0724 39.3609 7.04169C39.3982 7.04169 39.4463 7.05924 39.4726 7.00877L42.3379 7ZM37.3149 11.8267C37.3377 11.5834 37.3095 11.3381 37.2322 11.1064C37.1549 10.8747 37.0301 10.6616 36.8659 10.481C36.7017 10.3003 36.5016 10.156 36.2784 10.0573C36.0553 9.95853 35.814 9.90752 35.5701 9.90752C35.3262 9.90752 35.0849 9.95853 34.8618 10.0573C34.6386 10.156 34.4386 10.3003 34.2743 10.481C34.1101 10.6616 33.9853 10.8747 33.908 11.1064C33.8307 11.3381 33.8025 11.5834 33.8253 11.8267C33.8278 12.2731 34.0024 12.7012 34.3127 13.0217C34.6229 13.3422 35.0447 13.5303 35.4902 13.5467C35.7236 13.5564 35.9565 13.5193 36.1754 13.4375C36.3943 13.3557 36.5946 13.2309 36.7646 13.0704C36.9346 12.91 37.0709 12.7171 37.1654 12.5031C37.2599 12.2891 37.3107 12.0584 37.3149 11.8245V11.8267Z" fill="#3571A3"/>
<path d="M31.4255 37.4563C31.4255 35.8328 31.408 34.2071 31.4255 32.5836C31.4145 31.6469 31.6616 30.7253 32.1396 29.9201C32.7552 28.9197 33.6731 28.3163 34.7683 27.9456C35.163 27.8146 35.5653 27.7083 35.9732 27.6275C36.0395 27.6139 36.107 27.6073 36.1747 27.6077C38.1185 27.6077 40.063 27.6019 42.0082 27.5902C43.4175 27.5902 44.826 27.5799 46.2339 27.5594C46.9926 27.5794 47.7501 27.4863 48.4814 27.283C49.156 27.0769 49.776 26.7226 50.2964 26.2459C50.8167 25.7691 51.2242 25.182 51.4891 24.5274C51.8355 23.7508 52.0147 22.9098 52.0148 22.0592C52.0148 20.4774 52.0433 18.8934 52.0521 17.3115C52.0521 17.1623 52.0937 17.1207 52.2426 17.1207C53.4737 17.1207 54.707 17.1207 55.9382 17.1207C56.2803 17.1489 56.6144 17.2396 56.9239 17.3883C57.8796 17.7762 58.6975 18.4418 59.2722 19.2992C59.9543 20.3165 60.4354 21.4552 60.6895 22.6538C60.8942 23.5575 60.9876 24.4829 60.9677 25.4094C60.9677 26.627 60.9918 27.8468 60.9568 29.0645C60.9377 31.0143 60.2934 32.9064 59.1189 34.4616C58.3571 35.4571 57.2726 36.1553 56.0521 36.4361C55.7103 36.5035 55.3619 36.5314 55.0137 36.5195C52.2426 36.5656 49.4715 36.5524 46.7026 36.559C45.8615 36.559 45.0181 36.559 44.1769 36.559C43.1846 36.5765 42.1922 36.559 41.1977 36.5722C41.0816 36.5722 41.0466 36.6051 41.0487 36.7213C41.0487 37.0592 41.0487 37.3993 41.0487 37.7371C41.0487 37.8688 41.0838 37.8995 41.213 37.9017C43.5263 37.928 45.8396 37.917 48.1528 37.928C48.9633 37.928 49.7738 37.9412 50.5844 37.9434C50.6917 37.9434 50.7268 37.9741 50.7246 38.0838C50.7246 38.369 50.7246 38.6564 50.7246 38.9438C50.7246 39.8806 50.7421 40.8174 50.7443 41.7543C50.7443 42.1338 50.7443 42.5156 50.7224 42.8929C50.6577 43.5089 50.3858 44.0845 49.9513 44.5252C49.2218 45.3326 48.2974 45.8021 47.2875 46.1356C46.2819 46.4532 45.246 46.6649 44.1966 46.7674C42.9775 46.8984 41.7509 46.9468 40.5252 46.9122C38.9085 46.9041 37.2999 46.6828 35.741 46.254C34.7644 45.9917 33.8469 45.5449 33.0378 44.9377C32.2437 44.3344 31.6763 43.4801 31.4277 42.5134C31.4138 42.447 31.4086 42.3792 31.4124 42.3115C31.4211 40.6938 31.4255 39.0754 31.4255 37.4563ZM44.8363 42.079C44.808 42.3234 44.8315 42.5711 44.905 42.806C44.9786 43.0408 45.1006 43.2575 45.2632 43.442C45.4258 43.6265 45.6254 43.7747 45.8489 43.877C46.0724 43.9793 46.3149 44.0333 46.5606 44.0357C46.8063 44.038 47.0498 43.9885 47.2752 43.8905C47.5006 43.7924 47.7029 43.648 47.8689 43.4666C48.035 43.2852 48.1611 43.0708 48.2391 42.8374C48.317 42.604 48.3451 42.3568 48.3215 42.1119C48.2799 41.6804 48.0804 41.2797 47.7614 40.9868C47.4423 40.6939 47.0264 40.5296 46.5937 40.5255C46.1609 40.5214 45.7419 40.6778 45.4175 40.9647C45.093 41.2515 44.886 41.6484 44.8363 42.079V42.079Z" fill="#FDD042"/>
<path d="M37.319 11.8243C37.3151 12.0583 37.2646 12.289 37.1703 12.5031C37.0761 12.7172 36.94 12.9102 36.7702 13.0709C36.6004 13.2316 36.4003 13.3566 36.1815 13.4387C35.9628 13.5207 35.7298 13.5582 35.4964 13.5488C35.051 13.5324 34.6292 13.3443 34.3189 13.0238C34.0087 12.7033 33.8341 12.2751 33.8316 11.8287C33.8088 11.5855 33.837 11.3401 33.9143 11.1084C33.9916 10.8767 34.1164 10.6637 34.2806 10.483C34.4448 10.3024 34.6449 10.1581 34.8681 10.0593C35.0912 9.96057 35.3324 9.90956 35.5764 9.90956C35.8203 9.90956 36.0616 9.96057 36.2847 10.0593C36.5079 10.1581 36.7079 10.3024 36.8722 10.483C37.0364 10.6637 37.1612 10.8767 37.2385 11.1084C37.3158 11.3401 37.344 11.5855 37.3212 11.8287L37.319 11.8243Z" fill="#FDFDFD"/>
<path d="M44.8357 42.0789C44.8358 41.7302 44.9396 41.3894 45.1338 41.1C45.3281 40.8106 45.604 40.5857 45.9264 40.454C46.2488 40.3224 46.6031 40.2899 46.944 40.3607C47.2849 40.4315 47.597 40.6024 47.8406 40.8516C48.0841 41.1008 48.248 41.417 48.3114 41.7599C48.3747 42.1028 48.3347 42.4568 48.1963 42.7768C48.0579 43.0968 47.8275 43.3682 47.5345 43.5565C47.2414 43.7448 46.899 43.8414 46.5509 43.834C46.3231 43.832 46.0979 43.785 45.8883 43.6956C45.6787 43.6062 45.4887 43.4763 45.3294 43.3132C45.17 43.1501 45.0444 42.9572 44.9596 42.7453C44.8749 42.5335 44.8328 42.307 44.8357 42.0789Z" fill="#FEFEFD"/>
<path d="M68.3872 21.9704C69.1915 20.7176 70.2587 20.0912 71.5888 20.0912C72.9344 20.0912 73.9552 20.5243 74.6512 21.3904C75.3627 22.2411 75.7184 23.3237 75.7184 24.6384C75.7184 25.9531 75.3549 27.0512 74.628 27.9328C73.9165 28.7989 72.9189 29.232 71.6352 29.232C70.3669 29.232 69.3152 28.7912 68.48 27.9096V33.7792C68.48 33.9339 68.4181 34.0576 68.2944 34.1504C68.1707 34.2587 68.0237 34.3128 67.8536 34.3128C67.6835 34.3128 67.5365 34.2587 67.4128 34.1504C67.2891 34.0576 67.2272 33.9339 67.2272 33.7792V21.8544C67.2272 21.5605 67.0803 21.4136 66.7864 21.4136H65.696C65.5413 21.4136 65.4099 21.3672 65.3016 21.2744C65.2088 21.1661 65.1624 21.0347 65.1624 20.88C65.1624 20.7253 65.2088 20.5939 65.3016 20.4856C65.4099 20.3773 65.5413 20.3232 65.696 20.3232H66.9488C67.9387 20.3232 68.4181 20.8723 68.3872 21.9704ZM68.48 26.7728C69.4699 27.7008 70.4597 28.1648 71.4496 28.1648C72.4395 28.1648 73.1896 27.84 73.7 27.1904C74.2259 26.5408 74.4888 25.6824 74.4888 24.6152C74.4888 23.548 74.2336 22.7051 73.7232 22.0864C73.2128 21.4677 72.5091 21.1584 71.612 21.1584C70.2973 21.1584 69.2533 21.8931 68.48 23.3624V26.7728ZM76.4813 33.176L77.2237 33.2456C77.9815 33.2456 78.6002 32.9285 79.0797 32.2944C79.4509 31.8149 79.8607 31.1112 80.3093 30.1832L81.0981 28.5592L77.3165 20.9032C77.2546 20.764 77.2546 20.6248 77.3165 20.4856C77.3938 20.3464 77.5021 20.2459 77.6413 20.184C77.7959 20.1067 77.9429 20.068 78.0821 20.068C78.2367 20.068 78.3682 20.184 78.4765 20.416L81.7477 27.2832L85.0189 20.416C85.1271 20.184 85.2509 20.068 85.3901 20.068C85.7613 20.068 86.0165 20.2072 86.1557 20.4856C86.1866 20.5629 86.2021 20.6403 86.2021 20.7176C86.2021 20.7795 86.1866 20.8413 86.1557 20.9032L81.4229 30.6472C81.129 31.2659 80.8893 31.7221 80.7037 32.016C80.5335 32.3253 80.2783 32.6965 79.9381 33.1296C79.273 33.9184 78.3605 34.3128 77.2005 34.3128C76.8757 34.3128 76.6282 34.2896 76.4581 34.2432C76.1178 34.1659 75.9709 33.9648 76.0173 33.64C76.0637 33.3307 76.2183 33.176 76.4813 33.176ZM94.4065 27.5152C94.5303 27.4379 94.6695 27.4147 94.8241 27.4456C94.9943 27.4765 95.1103 27.5461 95.1721 27.6544C95.234 27.7472 95.2649 27.8323 95.2649 27.9096C95.2649 28.1416 95.1799 28.3117 95.0097 28.42C94.0817 28.9613 93.0841 29.232 92.0169 29.232C90.9497 29.232 90.1841 29.0155 89.7201 28.5824C89.2561 28.1339 89.0241 27.3992 89.0241 26.3784V21.4136H87.7249C87.5703 21.4136 87.4388 21.3672 87.3305 21.2744C87.2377 21.1661 87.1913 21.0347 87.1913 20.88C87.1913 20.7253 87.2377 20.5939 87.3305 20.4856C87.4388 20.3773 87.5703 20.3232 87.7249 20.3232H89.0241V17.0056C89.0241 16.8509 89.086 16.7272 89.2097 16.6344C89.3335 16.5261 89.4804 16.472 89.6505 16.472C89.8207 16.472 89.9676 16.5261 90.0913 16.6344C90.2151 16.7272 90.2769 16.8509 90.2769 17.0056V20.3232H94.1745C94.3292 20.3232 94.4529 20.3773 94.5457 20.4856C94.654 20.5939 94.7081 20.7253 94.7081 20.88C94.7081 21.0347 94.654 21.1661 94.5457 21.2744C94.4529 21.3672 94.3292 21.4136 94.1745 21.4136H90.2769V26.3784C90.2769 27.028 90.4084 27.492 90.6713 27.7704C90.9497 28.0333 91.4524 28.1648 92.1793 28.1648C92.9217 28.1648 93.6641 27.9483 94.4065 27.5152ZM98.3252 28.6984C98.3252 28.8531 98.2633 28.9768 98.1396 29.0696C98.0158 29.1779 97.8689 29.232 97.6988 29.232C97.5286 29.232 97.3817 29.1779 97.258 29.0696C97.1342 28.9768 97.0724 28.8531 97.0724 28.6984V12.6904H95.5412C95.3865 12.6904 95.2628 12.644 95.17 12.5512C95.0617 12.4429 95.0076 12.3115 95.0076 12.1568C95.0076 12.0021 95.0617 11.8707 95.17 11.7624C95.2628 11.6541 95.3865 11.6 95.5412 11.6H97.722C97.8766 11.6 98.0158 11.6541 98.1396 11.7624C98.2633 11.8707 98.3252 12.0021 98.3252 12.1568V21.8776C99.2841 20.6557 100.421 20.0448 101.736 20.0448C102.602 20.0448 103.29 20.2691 103.8 20.7176C104.326 21.1507 104.589 21.7616 104.589 22.5504V27.492C104.589 27.7704 104.798 27.9096 105.216 27.9096H106.12C106.275 27.9096 106.399 27.9637 106.492 28.072C106.6 28.1803 106.654 28.3117 106.654 28.4664C106.654 28.6211 106.6 28.7525 106.492 28.8608C106.399 28.9536 106.275 29 106.12 29H105.216C103.963 29 103.336 28.4973 103.336 27.492V22.5504C103.336 21.5915 102.803 21.112 101.736 21.112C100.313 21.112 99.1758 21.8699 98.3252 23.3856V28.6984ZM112.093 28.1648C113.037 28.1648 113.802 27.84 114.39 27.1904C114.993 26.5408 115.295 25.7056 115.295 24.6848C115.295 23.6485 114.993 22.8056 114.39 22.156C113.802 21.4909 113.037 21.1584 112.093 21.1584C111.15 21.1584 110.376 21.4909 109.773 22.156C109.185 22.8056 108.892 23.6485 108.892 24.6848C108.892 25.7056 109.185 26.5408 109.773 27.1904C110.376 27.84 111.15 28.1648 112.093 28.1648ZM108.868 27.956C108.049 27.0899 107.639 25.9917 107.639 24.6616C107.639 23.3315 108.056 22.2411 108.892 21.3904C109.727 20.5243 110.794 20.0912 112.093 20.0912C113.392 20.0912 114.452 20.5243 115.272 21.3904C116.107 22.2411 116.524 23.3392 116.524 24.6848C116.524 26.0149 116.107 27.1053 115.272 27.956C114.452 28.8067 113.385 29.232 112.07 29.232C110.771 29.232 109.704 28.8067 108.868 27.956ZM119.235 21.4136H118.145C117.99 21.4136 117.859 21.3672 117.75 21.2744C117.657 21.1661 117.611 21.0347 117.611 20.88C117.611 20.7253 117.657 20.5939 117.75 20.4856C117.859 20.3773 117.99 20.3232 118.145 20.3232H119.397C120.356 20.3232 120.836 20.8491 120.836 21.9008C121.764 20.6944 122.932 20.0912 124.339 20.0912C125.174 20.0912 125.855 20.3077 126.381 20.7408C126.922 21.1584 127.193 21.7771 127.193 22.5968V27.4688C127.193 27.7627 127.401 27.9096 127.819 27.9096H128.724C128.879 27.9096 129.002 27.9637 129.095 28.072C129.203 28.1803 129.257 28.3117 129.257 28.4664C129.257 28.6211 129.203 28.7525 129.095 28.8608C129.002 28.9536 128.879 29 128.724 29H127.819C126.566 29 125.94 28.4973 125.94 27.492V22.5968C125.94 22.1328 125.793 21.7771 125.499 21.5296C125.221 21.2821 124.826 21.1584 124.316 21.1584C122.893 21.1584 121.764 21.9008 120.929 23.3856V28.6984C120.929 28.8531 120.867 28.9768 120.743 29.0696C120.619 29.1779 120.472 29.232 120.302 29.232C120.132 29.232 119.985 29.1779 119.861 29.0696C119.738 28.9768 119.676 28.8531 119.676 28.6984V21.8544C119.676 21.5605 119.529 21.4136 119.235 21.4136Z" fill="#3571A3"/>
</svg>
