<svg width="154" height="55" viewBox="0 0 154 55" fill="none" xmlns="http://www.w3.org/2000/svg">
<g clip-path="url(#clip0)">
<path d="M27.1451 34.0196C29.8525 34.0196 32.0473 31.5528 32.0473 28.5098C32.0473 25.4668 29.8525 23 27.1451 23C24.4377 23 22.2429 25.4668 22.2429 28.5098C22.2429 31.5528 24.4377 34.0196 27.1451 34.0196Z" fill="#61DAFB"/>
<path d="M27.5 39.8488C42.0275 39.8488 53.8043 34.7948 53.8043 28.5604C53.8043 22.326 42.0275 17.272 27.5 17.272C12.9725 17.272 1.19565 22.326 1.19565 28.5604C1.19565 34.7948 12.9725 39.8488 27.5 39.8488Z" stroke="#61DAFB" stroke-width="1.5"/>
<path d="M18.8021 34.2046C26.0658 48.3453 35.8484 57.2815 40.6522 54.1643C45.4559 51.0471 43.4616 37.0569 36.1979 22.9162C28.9341 8.77555 19.1515 -0.160719 14.3478 2.95649C9.54409 6.07369 11.5383 20.064 18.8021 34.2046Z" stroke="#61DAFB" stroke-width="1.5"/>
<path d="M18.8021 22.9162C11.5383 37.0569 9.54409 51.0471 14.3478 54.1643C19.1515 57.2815 28.9341 48.3453 36.1979 34.2046C43.4616 20.0639 45.4559 6.07368 40.6522 2.95648C35.8484 -0.160731 26.0658 8.77554 18.8021 22.9162Z" stroke="#61DAFB" stroke-width="1.5"/>
</g>
<path d="M81.3454 29.8391H74.6838V39.3826H72.731V16.453H80.18C82.6262 16.453 84.537 17.0462 85.9124 18.2326C87.2877 19.4189 87.9754 21.0778 87.9754 23.209C87.9754 24.6789 87.545 25.9755 86.6841 27.0989C85.8231 28.2222 84.6683 28.9992 83.2194 29.4296L88.9518 39.1778V39.3826H86.8888L81.3454 29.8391ZM74.6838 28.1855H80.6209C82.2483 28.1855 83.5554 27.7235 84.5423 26.7996C85.5292 25.8757 86.0226 24.6789 86.0226 23.209C86.0226 21.5922 85.5082 20.3376 84.4793 19.4452C83.4504 18.5528 82.0068 18.1066 80.1485 18.1066H74.6838V28.1855ZM98.2147 39.656C96.9569 39.656 95.8176 39.3461 94.7968 38.7263C93.7851 38.1065 92.9966 37.2452 92.4315 36.1423C91.8664 35.0303 91.5839 33.7862 91.5839 32.4099V31.822C91.5839 30.4001 91.8573 29.1195 92.4042 27.9802C92.9602 26.8409 93.7304 25.9477 94.7147 25.3005C95.6991 24.6443 96.7655 24.3162 97.914 24.3162C99.7095 24.3162 101.131 24.9314 102.18 26.1619C103.237 27.3832 103.766 29.0557 103.766 31.1794V32.0955H93.2108V32.4099C93.2108 34.087 93.6894 35.4861 94.6464 36.6072C95.6125 37.7191 96.8248 38.2751 98.2831 38.2751C99.1581 38.2751 99.9283 38.1156 100.594 37.7966C101.268 37.4776 101.879 36.9672 102.426 36.2654L103.451 37.0447C102.248 38.7856 100.503 39.656 98.2147 39.656ZM97.914 25.7107C96.6835 25.7107 95.6444 26.1619 94.7968 27.0642C93.9582 27.9665 93.4478 29.1788 93.2655 30.7009H102.139V30.5232C102.093 29.1013 101.687 27.9438 100.922 27.0505C100.156 26.1573 99.1535 25.7107 97.914 25.7107ZM116.289 39.3826C116.125 38.9177 116.02 38.2296 115.975 37.3181C115.4 38.0655 114.667 38.6443 113.773 39.0544C112.889 39.4555 111.95 39.656 110.957 39.656C109.535 39.656 108.382 39.2595 107.498 38.4665C106.623 37.6736 106.185 36.671 106.185 35.4587C106.185 34.0186 106.782 32.8793 107.976 32.0408C109.18 31.2022 110.852 30.783 112.994 30.783H115.961V29.1013C115.961 28.044 115.633 27.2146 114.976 26.613C114.329 26.0024 113.381 25.697 112.133 25.697C110.993 25.697 110.05 25.9887 109.303 26.572C108.555 27.1553 108.182 27.8572 108.182 28.6775L106.541 28.6638C106.541 27.488 107.088 26.4718 108.182 25.615C109.275 24.7491 110.62 24.3162 112.215 24.3162C113.864 24.3162 115.163 24.7309 116.111 25.5603C117.068 26.3806 117.56 27.529 117.588 29.0056V36.0056C117.588 37.4366 117.738 38.5076 118.039 39.2185V39.3826H116.289ZM111.148 38.2068C112.242 38.2068 113.217 37.9425 114.074 37.4138C114.94 36.8852 115.569 36.1788 115.961 35.2947V32.0408H113.035C111.404 32.059 110.128 32.3598 109.207 32.9431C108.286 33.5173 107.826 34.3103 107.826 35.322C107.826 36.1514 108.131 36.8396 108.742 37.3865C109.362 37.9333 110.164 38.2068 111.148 38.2068ZM127.432 38.2751C128.571 38.2751 129.523 37.9561 130.289 37.3181C131.064 36.671 131.483 35.837 131.547 34.8162H133.119C133.073 35.7185 132.791 36.5434 132.271 37.2908C131.752 38.029 131.059 38.6078 130.193 39.0271C129.336 39.4464 128.416 39.656 127.432 39.656C125.49 39.656 123.95 38.9815 122.81 37.6326C121.68 36.2836 121.115 34.4698 121.115 32.1912V31.699C121.115 30.2406 121.37 28.9509 121.881 27.8298C122.391 26.7087 123.12 25.8428 124.068 25.2322C125.025 24.6215 126.142 24.3162 127.418 24.3162C129.04 24.3162 130.376 24.7992 131.424 25.7654C132.481 26.7315 133.046 28.003 133.119 29.5798H131.547C131.474 28.4223 131.055 27.488 130.289 26.7771C129.532 26.0662 128.575 25.7107 127.418 25.7107C125.941 25.7107 124.793 26.2439 123.973 27.3103C123.161 28.3767 122.756 29.8715 122.756 31.7947V32.2732C122.756 34.1599 123.161 35.6319 123.973 36.6892C124.793 37.7465 125.946 38.2751 127.432 38.2751ZM138.943 20.8025V24.5896H142.006V25.9294H138.943V35.7869C138.943 36.6072 139.089 37.2178 139.381 37.6189C139.682 38.0199 140.178 38.2205 140.871 38.2205C141.144 38.2205 141.586 38.1749 142.197 38.0837L142.266 39.4236C141.837 39.5785 141.254 39.656 140.516 39.656C139.394 39.656 138.579 39.3324 138.068 38.6853C137.558 38.029 137.303 37.0675 137.303 35.8005V25.9294H134.582V24.5896H137.303V20.8025H138.943Z" fill="#61DAFB"/>
<defs>
<clipPath id="clip0">
<rect width="55" height="55" fill="white"/>
</clipPath>
</defs>
</svg>
