<svg width="100" height="100" viewBox="0 0 100 100" fill="none" xmlns="http://www.w3.org/2000/svg">
<path d="M99.991 52.4482C99.9013 53.4255 99.8116 54.4029 99.713 55.3713C99.1717 60.4449 97.8432 65.4032 95.7751 70.0679C92.9027 76.644 88.64 82.5204 83.28 87.2932C78.3057 91.7862 72.4664 95.2171 66.1195 97.3757C59.7726 99.5342 53.0518 100.375 46.3686 99.8467C39.147 99.4395 32.1199 97.3548 25.8453 93.7583C17.5453 89.1978 10.7163 82.3686 6.15721 74.0699C1.59815 65.7712 -0.502355 56.3462 0.101458 46.8977C0.51393 38.6285 3.08036 30.6104 7.54653 23.6378C10.9591 18.0944 15.4314 13.2779 20.7076 9.46374C25.9838 5.64954 31.9604 2.91247 38.2956 1.40907C43.4677 0.121206 48.8197 -0.287998 54.1276 0.198559C63.5366 0.918691 72.5364 4.34419 80.0418 10.0621C86.9549 15.258 92.3982 22.161 95.8379 30.0939C98.2352 35.546 99.6183 41.3892 99.9193 47.3371C99.9193 47.5343 99.9731 47.7316 100 47.9289L99.991 52.4482ZM49.7592 2.27885C46.0469 2.11426 42.3308 2.50719 38.7351 3.44454C28.4476 5.90853 19.2733 11.726 12.6594 19.9793C6.53802 27.4004 2.89054 36.5488 2.22734 46.1445C1.77592 51.317 2.18512 56.5286 3.43829 61.5674C7.02627 75.2866 15.0992 85.6253 27.5675 92.3415C37.2662 97.6542 48.5547 99.2968 59.366 96.9684C72.7492 94.2783 83.0916 86.9614 90.5098 75.5377C94.6821 69.0855 97.1509 61.6816 97.6857 54.0174C98.4029 45.8202 96.9787 37.5774 93.5526 30.0956C90.1264 22.6138 84.8157 16.1495 78.1402 11.3353C69.9618 5.2236 59.9673 2.0343 49.7592 2.27885V2.27885Z" fill="black"/>
<path d="M50.1229 22.0026C54.2771 22.064 58.4842 22.5882 62.4749 24.2696C64.0317 24.8661 65.4389 25.786 66.6002 26.9663C68.2398 28.7326 68.2735 30.6784 66.6627 32.4731C65.3792 33.8011 63.7944 34.8125 62.0374 35.4248C58.6063 36.7299 54.9655 37.4224 51.2865 37.4698C46.9304 37.602 42.6319 37.1817 38.5403 35.6562C37.2755 35.132 36.0483 34.5246 34.8669 33.8379C34.4416 33.5834 34.0506 33.2771 33.7033 32.9264C31.5349 30.9287 31.5349 28.5626 33.7033 26.5648C35.2146 25.264 36.9869 24.289 38.9057 23.7028C42.5233 22.5306 46.3138 21.9561 50.1229 22.0026V22.0026Z" fill="black"/>
<path d="M37.5306 77.6985V64.0024H62.3643V77.6985H37.5306Z" fill="black"/>
<path d="M71.9276 54.741C71.5463 53.8783 71.4767 52.9134 71.7305 52.0065C71.7663 51.9201 71.8218 51.8429 71.8926 51.7807C71.9634 51.7185 72.0477 51.673 72.1392 51.6476C72.9727 51.5131 73.7629 51.1897 74.447 50.703C74.5344 50.6633 74.6296 50.6427 74.7259 50.6427C74.8222 50.6427 74.9174 50.6633 75.0048 50.703C76.2233 51.3096 77.2667 52.2078 78.0387 53.3147C79.8727 55.8164 81.0036 58.7484 81.3178 61.8158C81.4056 62.9914 81.4153 64.1715 81.3466 65.3484C81.3466 65.8207 81.111 65.9954 80.587 65.9907C77.3703 65.9624 74.1537 65.9907 70.9371 65.9907C70.5428 65.9662 70.1499 66.0566 69.8077 66.2507C69.4655 66.4448 69.1894 66.7339 69.0139 67.0817C68.831 67.4053 68.7469 67.7738 68.7717 68.1432C68.7964 68.5126 68.9289 68.8671 69.1533 69.1644C69.1966 69.2258 69.2351 69.3108 69.2976 69.3392C70.0476 69.7028 69.913 70.2837 69.7255 70.8977C69.1005 72.9049 68.4754 74.9168 67.8311 76.9192C67.77 77.1736 67.6161 77.3971 67.3984 77.5474C67.2599 77.611 67.1089 77.644 66.956 77.644C66.8032 77.644 66.6522 77.611 66.5137 77.5474C66.3871 77.4342 66.287 77.2954 66.2206 77.1404C66.1542 76.9854 66.1229 76.8181 66.1291 76.6501C66.4272 74.4917 66.7878 72.3381 67.1291 70.1845C67.307 69.0511 67.4994 67.9223 67.6676 66.7889C67.908 65.1595 68.7783 64.3991 70.4419 64.3897C71.4756 64.3897 72.5094 64.3897 73.5431 64.3897C74.2836 64.3897 74.5384 64.1158 74.3941 63.4073C74.1778 62.34 73.9133 61.2774 73.6489 60.2289C73.5891 60.0879 73.5823 59.9306 73.6299 59.7852C73.6775 59.6398 73.7763 59.5158 73.9085 59.4355C75.5884 58.0622 76.7012 56.1347 77.0386 54.0137C77.1203 53.5792 77.0001 53.2344 76.5578 53.1542C76.1154 53.0739 75.9183 53.3525 75.827 53.7634C74.8653 58.1178 71.8026 60.4178 67.2253 60.1769C66.6708 60.1591 66.1181 60.1038 65.5713 60.0117C65.3742 59.9739 65.2203 59.7283 65.0424 59.5772C65.2299 59.4638 65.4175 59.256 65.6098 59.256C67.0915 59.2714 68.5564 58.948 69.889 58.3114C70.9079 57.8621 71.7873 57.1556 72.4376 56.2637C73.088 55.3719 73.486 54.3266 73.5912 53.2344C73.6537 52.7102 73.4614 52.3607 73.0575 52.3466C72.5767 52.3466 72.4276 52.6394 72.3555 53.0644C72.2209 53.6642 72.0815 54.2121 71.9276 54.741Z" fill="black"/>
<path d="M27.9721 54.741C27.8423 54.179 27.6788 53.6217 27.5827 53.055C27.5057 52.6157 27.3182 52.3135 26.847 52.389C26.3758 52.4646 26.2797 52.8235 26.3374 53.2533C26.722 56.1248 28.4241 57.9147 31.1454 58.7648C32.1636 59.0085 33.2011 59.1665 34.2467 59.2371C34.5351 59.2749 34.9006 59.2371 34.8621 59.6196C34.8621 59.7755 34.5255 59.9927 34.3188 60.0258C32.8863 60.2831 31.4165 60.2639 29.9915 59.9691C26.6691 59.2324 24.8228 57.0929 24.1353 53.8956C24.0439 53.4611 23.9189 53.1116 23.3948 53.1494C22.9813 53.1777 22.7938 53.5556 22.914 54.094C23.2685 56.2123 24.3987 58.1304 26.0922 59.4874C26.1787 59.5582 26.2652 59.6338 26.3518 59.7094C26.4383 59.7849 26.3518 59.7424 26.3518 59.681C26.0729 60.9373 25.7941 62.1227 25.5585 63.3176C25.395 64.1394 25.6306 64.3708 26.496 64.3755C27.549 64.3755 28.602 64.3755 29.6549 64.3755C30.2752 64.3329 30.8882 64.528 31.3652 64.9198C31.8421 65.3117 32.146 65.8699 32.2128 66.4771C32.7754 69.8728 33.2995 73.2685 33.8332 76.6689C33.8594 76.7748 33.8636 76.8847 33.8457 76.9922C33.8278 77.0996 33.788 77.2025 33.7288 77.2946C33.6696 77.3867 33.5921 77.4661 33.501 77.5282C33.4099 77.5903 33.307 77.6337 33.1985 77.656C33.0911 77.6863 32.9785 77.6947 32.8677 77.6805C32.7569 77.6664 32.6502 77.6301 32.5542 77.5739C32.4582 77.5177 32.375 77.4428 32.3097 77.3537C32.2443 77.2647 32.1983 77.1634 32.1744 77.0562C31.5061 75.0018 30.8618 72.9379 30.2127 70.8788C30.1694 70.7371 30.155 70.5812 30.1117 70.4396C30.0321 70.2642 30.0225 70.0659 30.0848 69.8839C30.1472 69.7019 30.2769 69.5496 30.4483 69.4572C30.7725 69.2021 31.0039 68.8508 31.1079 68.4558C31.2119 68.0608 31.1829 67.6433 31.0252 67.2658C30.8822 66.8732 30.6163 66.5352 30.2656 66.3001C29.915 66.0651 29.4975 65.9452 29.0732 65.9576C25.8566 65.9576 22.6399 65.9576 19.4233 65.9576C18.8704 65.9576 18.654 65.8065 18.5675 65.2775C18.3423 63.4627 18.4729 61.6224 18.9521 59.8558C19.5772 57.1213 20.6254 54.571 22.5871 52.4882C23.3003 51.8143 24.0798 51.2115 24.9142 50.6888C25.0192 50.652 25.1307 50.636 25.2421 50.6417C25.3535 50.6474 25.4626 50.6746 25.5633 50.7219C26.2893 50.9911 27.0057 51.3359 27.7221 51.572C28.0202 51.6664 28.1692 51.7751 28.2366 52.0443C28.4166 52.9099 28.3837 53.8054 28.1404 54.656L27.9721 54.741Z" fill="black"/>
<path d="M39.824 58.9915L39.574 60.262C39.1809 60.2797 38.79 60.1941 38.4418 60.0139C38.0936 59.8338 37.8006 59.5656 37.5931 59.2371C36.6747 57.6077 36.0593 55.8698 36.2901 53.9665C36.3672 53.2858 36.6735 52.6499 37.1604 52.1597C37.6473 51.6694 38.287 51.3529 38.9778 51.2603C39.0753 51.2517 39.1736 51.2623 39.2669 51.2915C39.3602 51.3207 39.4466 51.3679 39.5211 51.4303C41.4444 53.1919 43.8003 53.2014 45.6851 51.4681C45.7908 51.3913 45.9118 51.3372 46.0402 51.3096C46.1687 51.2819 46.3016 51.2812 46.4303 51.3075C48.2862 51.7798 49.2911 53.3053 48.969 55.27C48.8052 56.1958 48.5656 57.1071 48.2526 57.995C47.6612 59.7424 46.8582 60.3186 45.0023 60.3564C43.8147 60.3895 42.6271 60.3564 41.4395 60.3564C41.1126 60.3564 40.8626 60.2336 40.9299 59.9219C40.9658 59.8112 41.0282 59.7105 41.1118 59.6284C41.1955 59.5462 41.298 59.4849 41.4107 59.4496C42.3435 59.3457 43.281 59.3221 44.2138 59.2607C44.7457 59.2582 45.2617 59.0826 45.681 58.7612C46.1004 58.4399 46.3994 57.9911 46.5313 57.485C46.7717 56.6726 46.9881 55.8556 47.1996 55.0385C47.3006 54.6466 47.1996 54.2923 46.7717 54.1884C46.3438 54.0845 46.0793 54.3821 45.9688 54.793C45.7812 55.5203 45.5793 56.2476 45.3966 56.9749C45.3592 57.2821 45.2043 57.5638 44.9632 57.7629C44.7221 57.962 44.4129 58.0635 44.0984 58.047C43.0695 58.047 42.0357 58.047 41.0068 58.047C40.7446 58.0511 40.4891 57.9651 40.2845 57.8039C40.08 57.6426 39.9392 57.4162 39.8865 57.1638C39.675 56.4223 39.4778 55.6761 39.2807 54.9346C39.1317 54.3632 38.8384 54.0893 38.4537 54.2215C37.9248 54.401 37.9489 54.8071 38.0691 55.2464C38.2422 55.8792 38.3864 56.5262 38.5499 57.1355C38.6244 57.5131 38.7756 57.872 38.9945 58.1909C39.2135 58.5098 39.4956 58.7821 39.824 58.9915V58.9915Z" fill="black"/>
<path d="M54.5079 58.9915L54.2675 60.2572C53.8822 60.2766 53.4986 60.1961 53.1551 60.0236C52.8115 59.8512 52.5203 59.5929 52.3106 59.2749C51.349 57.6172 50.7288 55.8508 50.9884 53.9051C51.0752 53.2361 51.3842 52.6139 51.8675 52.1349C52.3508 51.6559 52.9814 51.3468 53.6617 51.2556C53.7668 51.2496 53.8721 51.2645 53.9712 51.2994C54.0703 51.3343 54.1613 51.3885 54.2387 51.4587C54.6278 51.8636 55.0966 52.1866 55.6166 52.4083C56.1367 52.63 56.6971 52.7457 57.264 52.7484C57.8309 52.751 58.3924 52.6406 58.9145 52.4238C59.4367 52.2069 59.9086 51.8882 60.3017 51.487C60.3984 51.3752 60.5275 51.295 60.6718 51.257C60.8161 51.2191 60.9687 51.2251 61.1094 51.2745C63.0663 51.7845 64.0712 53.5083 63.6048 55.6383C63.4307 56.4272 63.2124 57.2061 62.9509 57.9714C62.3499 59.7377 61.5085 60.3328 59.5853 60.3611C58.4554 60.3611 57.3255 60.3611 56.2196 60.3611C55.9023 60.3611 55.633 60.3328 55.6186 59.9408C55.6042 59.5488 55.8638 59.4354 56.21 59.4166L58.9025 59.2607C59.4446 59.2638 59.9719 59.0868 60.3987 58.7584C60.8255 58.43 61.1268 57.9696 61.2537 57.4519C61.4893 56.6585 61.7008 55.8603 61.9075 55.0574C62.0133 54.6418 61.9075 54.2782 61.4267 54.179C60.9459 54.0798 60.768 54.3773 60.6623 54.7646C60.4699 55.4919 60.2728 56.2145 60.0901 56.9465C60.0482 57.2578 59.8883 57.5421 59.6422 57.7426C59.3962 57.9431 59.0823 58.045 58.7631 58.0281C57.7341 58.0281 56.7052 58.0281 55.6763 58.0281C55.4234 58.0322 55.177 57.9495 54.9796 57.7943C54.7821 57.6391 54.6459 57.4212 54.5945 57.178C54.3781 56.4176 54.1762 55.6572 53.9742 54.8921C53.8684 54.4765 53.705 54.1223 53.1809 54.1979C52.7626 54.2593 52.6135 54.6277 52.753 55.1944C52.8924 55.7611 53.0462 56.3987 53.2338 56.9938C53.3004 57.3932 53.4474 57.7756 53.6661 58.1186C53.8849 58.4616 54.1711 58.7584 54.5079 58.9915V58.9915Z" fill="black"/>
<path d="M33.5399 62.732V61.6457H66.3694V62.732H33.5399Z" fill="black"/>
<path d="M31.7176 47.1421C31.7176 48.0188 31.363 48.8597 30.7318 49.4797C30.1006 50.0997 29.2446 50.448 28.3519 50.448C27.4548 50.448 26.5945 50.098 25.9602 49.4749C25.3258 48.8518 24.9695 48.0067 24.9695 47.1255C24.9695 46.2443 25.3258 45.3993 25.9602 44.7762C26.5945 44.1531 27.4548 43.803 28.3519 43.803C28.7968 43.803 29.2372 43.8896 29.6477 44.0578C30.0583 44.226 30.4308 44.4725 30.7438 44.783C31.0568 45.0935 31.304 45.4618 31.4711 45.8668C31.6383 46.2717 31.722 46.7051 31.7176 47.1421V47.1421Z" fill="black"/>
<path d="M71.5478 50.4527C70.8836 50.4462 70.2362 50.2467 69.6872 49.8795C69.1381 49.5123 68.712 48.9938 68.4624 48.3891C68.2128 47.7845 68.1509 47.1208 68.2846 46.4817C68.4182 45.8426 68.7414 45.2567 69.2134 44.7976C69.6854 44.3386 70.2851 44.027 70.9371 43.9021C71.589 43.7772 72.264 43.8446 72.8771 44.0957C73.4901 44.3469 74.0138 44.7706 74.3821 45.3135C74.7505 45.8564 74.947 46.4943 74.9471 47.1467C74.9471 47.5837 74.8589 48.0163 74.6877 48.4195C74.5165 48.8228 74.2655 49.1887 73.9494 49.4962C73.6333 49.8036 73.2583 50.0464 72.8461 50.2106C72.4338 50.3748 71.9926 50.4571 71.5478 50.4527Z" fill="black"/>
<path d="M57.3062 51.4965C56.7226 51.4937 56.1528 51.321 55.6691 51.0002C55.1853 50.6795 54.8091 50.225 54.5882 49.6944C54.3672 49.1637 54.3114 48.5806 54.4277 48.0188C54.544 47.457 54.8273 46.9417 55.2417 46.5379C55.6561 46.1342 56.183 45.8601 56.7559 45.7505C57.3288 45.6408 57.9219 45.7004 58.4604 45.9217C58.9988 46.143 59.4583 46.5162 59.7809 46.994C60.1035 47.4718 60.2747 48.0328 60.2728 48.6061C60.2748 48.9882 60.1992 49.3669 60.0505 49.7199C59.9018 50.073 59.683 50.3935 59.4068 50.6626C59.1306 50.9316 58.8026 51.144 58.4419 51.2872C58.0813 51.4303 57.6952 51.5015 57.3062 51.4965V51.4965Z" fill="black"/>
<path d="M42.6416 45.6968C43.2229 45.7061 43.7885 45.8838 44.2674 46.2077C44.7463 46.5315 45.1172 46.987 45.3336 47.5171C45.55 48.0471 45.6022 48.6282 45.4837 49.1873C45.3652 49.7464 45.0812 50.2587 44.6675 50.6599C44.2537 51.0611 43.7285 51.3334 43.1579 51.4425C42.5872 51.5517 41.9964 51.4929 41.4596 51.2736C40.9227 51.0542 40.4638 50.6841 40.1404 50.2095C39.8169 49.735 39.6433 49.1771 39.6413 48.6061C39.638 48.2199 39.7137 47.837 39.8637 47.4801C40.0138 47.1232 40.2353 46.7995 40.5151 46.5282C40.7949 46.2569 41.1273 46.0436 41.4925 45.9007C41.8578 45.7579 42.2485 45.6886 42.6416 45.6968V45.6968Z" fill="black"/>
<path d="M76.6155 67.2092H81.9043C82.1159 67.2092 82.3851 67.1619 82.5198 67.2611C82.7965 67.426 83.0135 67.6722 83.14 67.9648C83.1602 68.0528 83.1619 68.1439 83.145 68.2325C83.128 68.3211 83.0928 68.4054 83.0414 68.4802C82.9901 68.555 82.9238 68.6186 82.8464 68.6672C82.7691 68.7159 82.6825 68.7485 82.5919 68.763C82.4259 68.8073 82.2542 68.828 82.0822 68.8244H71.1198C71.0063 68.8343 70.892 68.8343 70.7785 68.8244C70.6721 68.8206 70.5678 68.7951 70.4719 68.7496C70.3761 68.7042 70.291 68.6397 70.2218 68.5602C70.1527 68.4808 70.1011 68.3881 70.0703 68.288C70.0395 68.188 70.0301 68.0828 70.0428 67.979C70.0398 67.8788 70.0583 67.7791 70.0971 67.6864C70.136 67.5937 70.1943 67.5101 70.2682 67.441C70.3422 67.372 70.4301 67.319 70.5263 67.2855C70.6225 67.2521 70.7248 67.2389 70.8265 67.247C71.6872 67.2233 72.5478 67.247 73.4085 67.247L76.6155 67.2092Z" fill="black"/>
<path d="M23.3371 67.2092H28.626C28.8376 67.2092 29.1068 67.1572 29.2415 67.2611C29.5131 67.4242 29.7278 67.6648 29.8569 67.9507C29.8818 68.0381 29.8874 68.1297 29.8733 68.2194C29.8592 68.3092 29.8258 68.3949 29.7753 68.4709C29.7247 68.5469 29.6583 68.6114 29.5803 68.6602C29.5024 68.7089 29.4147 68.7407 29.3232 68.7535C29.1202 68.8013 28.9116 68.8219 28.703 68.8149H17.9809C17.755 68.8149 17.4617 68.848 17.3174 68.7299C17.0818 68.5363 16.7981 68.2199 16.8126 67.9695C16.827 67.7192 17.1539 67.4501 17.404 67.2659C17.5482 67.162 17.8126 67.2139 18.0194 67.2092H23.3371Z" fill="black"/>
<path d="M71.3506 69.2636L72.6103 69.5659L70.5188 78.4872L69.2543 78.1944L71.3506 69.2636Z" fill="black"/>
<path d="M18.0819 69.273L19.3464 69.5611L17.2693 78.473L16 78.2085L18.0819 69.273Z" fill="black"/>
<path d="M27.2942 69.5659L28.5539 69.2636L30.6502 78.185L29.3905 78.4967L27.2942 69.5659Z" fill="black"/>
<path d="M83.9189 78.1849C83.5535 78.2747 83.2602 78.355 82.9573 78.4211C82.8502 78.4312 82.7423 78.4312 82.6352 78.4211L80.5581 69.5611L81.8178 69.2636L83.9189 78.1849Z" fill="black"/>
<path d="M34.689 39.3825C34.689 39.6869 34.5659 39.9788 34.3468 40.194C34.1277 40.4092 33.8305 40.5301 33.5206 40.5301C33.2108 40.5301 32.9136 40.4092 32.6945 40.194C32.4754 39.9788 32.3523 39.6869 32.3523 39.3825C32.3523 39.0781 32.4754 38.7862 32.6945 38.571C32.9136 38.3558 33.2108 38.2349 33.5206 38.2349C33.8305 38.2349 34.1277 38.3558 34.3468 38.571C34.5659 38.7862 34.689 39.0781 34.689 39.3825Z" fill="black"/>
<path d="M65.2203 39.3494C65.2241 39.0444 65.3512 38.7534 65.5734 38.5404C65.7957 38.3274 66.095 38.2098 66.4055 38.2136C66.716 38.2173 67.0123 38.3421 67.2291 38.5604C67.446 38.7788 67.5657 39.0728 67.5619 39.3778C67.56 39.5288 67.5278 39.6779 67.4672 39.8168C67.4066 39.9556 67.3188 40.0813 67.2088 40.1868C67.0987 40.2922 66.9686 40.3754 66.8258 40.4315C66.683 40.4875 66.5304 40.5154 66.3767 40.5136C66.2229 40.5117 66.071 40.4801 65.9297 40.4206C65.7884 40.3611 65.6604 40.2748 65.553 40.1667C65.4456 40.0586 65.361 39.9308 65.3039 39.7906C65.2468 39.6503 65.2184 39.5004 65.2203 39.3494V39.3494Z" fill="black"/>
<path d="M49.9354 43.7039C49.7036 43.7 49.4782 43.6285 49.2879 43.4984C49.0975 43.3683 48.951 43.1855 48.8667 42.9733C48.7825 42.7611 48.7645 42.5291 48.8149 42.3068C48.8653 42.0845 48.982 41.8819 49.1499 41.7249C49.3179 41.568 49.5297 41.4636 49.7582 41.4252C49.9867 41.3868 50.2218 41.416 50.4333 41.5092C50.6449 41.6024 50.8235 41.7553 50.9463 41.9485C51.0691 42.1417 51.1306 42.3664 51.123 42.594C51.1219 42.7443 51.0899 42.8928 51.0291 43.0306C50.9683 43.1685 50.8798 43.2929 50.769 43.3965C50.6582 43.5001 50.5272 43.5806 50.384 43.6335C50.2408 43.6863 50.0883 43.7102 49.9354 43.7039Z" fill="black"/>
</svg>
