<svg width="100" height="101" viewBox="0 0 100 101" fill="none" xmlns="http://www.w3.org/2000/svg">
<path d="M99.991 53.0047C99.9013 53.9821 99.8116 54.9594 99.713 55.9279C99.1717 61.0014 97.8432 65.9597 95.7751 70.6245C92.9027 77.2005 88.64 83.0769 83.28 87.8497C78.3057 92.3428 72.4664 95.7736 66.1195 97.9322C59.7726 100.091 53.0518 100.932 46.3686 100.403C39.147 99.996 32.1199 97.9114 25.8453 94.3148C17.5453 89.7543 10.7163 82.9251 6.15721 74.6264C1.59815 66.3277 -0.502355 56.9027 0.101458 47.4542C0.51393 39.185 3.08036 31.1669 7.54653 24.1943C10.9591 18.651 15.4314 13.8345 20.7076 10.0203C25.9838 6.20606 31.9604 3.46899 38.2956 1.96559C43.4677 0.677725 48.8197 0.26852 54.1276 0.755078C63.5366 1.47521 72.5364 4.90071 80.0418 10.6186C86.9549 15.8145 92.3982 22.7175 95.8379 30.6504C98.2352 36.1025 99.6183 41.9457 99.9193 47.8936C99.9193 48.0909 99.9731 48.2881 100 48.4854L99.991 53.0047ZM49.7592 2.83537C46.0469 2.67078 42.3308 3.06371 38.7351 4.00106C28.4476 6.46505 19.2733 12.2825 12.6594 20.5359C6.53802 27.9569 2.89054 37.1053 2.22734 46.701C1.77592 51.8736 2.18512 57.0851 3.43829 62.1239C7.02627 75.8431 15.0992 86.1819 27.5675 92.898C37.2662 98.2108 48.5547 99.8533 59.366 97.5249C72.7492 94.8348 83.0916 87.5179 90.5098 76.0942C94.6821 69.642 97.1509 62.2382 97.6857 54.5739C98.4029 46.3767 96.9787 38.1339 93.5526 30.6521C90.1264 23.1703 84.8157 16.706 78.1402 11.8919C69.9618 5.78012 59.9673 2.59082 49.7592 2.83537V2.83537Z" fill="black"/>
<path d="M71.8163 42.2625C68.8927 47.0367 65.2637 51.3416 61.0524 55.0312C55.9441 59.5077 50.2008 63.2032 44.0095 65.9976C43.7823 66.1418 43.5112 66.2002 43.2448 66.1624C42.9785 66.1246 42.7343 65.9931 42.5563 65.7914C40.565 63.8366 38.5737 61.8998 36.5823 59.945C35.8378 59.2187 35.1112 58.4924 34.3937 57.7392C34.3348 57.6712 34.2928 57.5903 34.271 57.5031C34.2492 57.4159 34.2482 57.3248 34.2681 57.2371C37.6798 49.4426 42.5513 42.3722 48.62 36.4072C51.4636 33.6758 54.5909 31.256 57.9488 29.1889C58.0034 29.1383 58.0679 29.0996 58.1382 29.0752C58.2085 29.0509 58.2831 29.0413 58.3572 29.0472C58.4314 29.0531 58.5035 29.0743 58.5691 29.1095C58.6347 29.1447 58.6922 29.1931 58.7381 29.2516C63.0736 33.5677 67.4151 37.8777 71.7625 42.1818C71.7836 42.2064 71.8017 42.2335 71.8163 42.2625V42.2625ZM61.8597 43.6434C61.8716 43.0471 61.7644 42.4545 61.5444 41.9001C61.3243 41.3458 60.9959 40.8409 60.5782 40.415C60.1605 39.9891 59.6621 39.6508 59.112 39.42C58.5619 39.1891 57.9713 39.0702 57.3747 39.0703C56.7705 39.0608 56.1704 39.1708 55.6089 39.3941C55.0474 39.6173 54.5356 39.9493 54.103 40.371C53.6703 40.7926 53.3253 41.2957 53.0878 41.8511C52.8504 42.4066 52.7251 43.0035 52.7193 43.6075C52.7619 44.8218 53.2648 45.9744 54.1259 46.8319C54.987 47.6893 56.1419 48.1875 57.3568 48.2254C57.9551 48.2219 58.5468 48.1002 59.0979 47.8672C59.649 47.6343 60.1486 47.2947 60.5679 46.868C60.9872 46.4413 61.318 45.936 61.5413 45.381C61.7645 44.8261 61.8758 44.2325 61.8687 43.6344L61.8597 43.6434Z" fill="black"/>
<path d="M33.1827 54.7263C32.806 54.4394 32.483 54.1883 32.1601 53.9462C31.2103 53.2169 30.076 52.7668 28.8844 52.6464C27.6928 52.526 26.4913 52.7402 25.4147 53.2648C24.0782 53.8476 22.7865 54.5201 21.4859 55.1747C21.0463 55.3989 20.6427 55.6768 20.1314 55.9996C20.1583 55.8678 20.1974 55.7387 20.248 55.6141C22.1964 52.0419 24.7244 48.8179 27.729 46.0734C29.953 44.0288 32.6749 42.6034 35.6225 41.9397C37.158 41.7234 38.7233 41.9024 40.1703 42.4597C37.5747 46.3911 35.2405 50.4888 33.1827 54.7263Z" fill="black"/>
<path d="M44.6732 80.3535C44.8168 80.0934 44.9423 79.8334 45.1038 79.5823C46.2004 77.8251 47.077 75.9399 47.714 73.9691C47.9835 73.1167 48.0501 72.213 47.9084 71.3303C47.7666 70.4476 47.4206 69.6102 46.8978 68.8849C46.6763 68.5436 46.4367 68.2144 46.1802 67.8986C45.9739 67.6475 46.0277 67.4771 46.2878 67.3337C46.548 67.1902 46.9516 66.9212 47.3014 66.7508C50.7447 65.019 54.0653 63.0536 57.2401 60.8686C58.191 60.223 58.2538 60.2768 58.3973 61.4245C58.9803 66.0604 57.2671 69.8444 54.1814 73.171C51.5247 75.9493 48.4828 78.3319 45.1486 80.2459C45.0231 80.3176 44.8885 80.3714 44.754 80.4342L44.6732 80.3535Z" fill="black"/>
<path d="M74.6329 36.4969L64.2816 26.0147C64.6493 25.8622 64.8646 25.7546 65.0978 25.6739C68.7908 24.4544 72.6257 23.7161 76.5076 23.4771C76.9561 23.4771 77.0638 23.6205 77.0458 24.033C76.9152 26.9158 76.4822 29.7769 75.7541 32.5694C75.4133 33.8606 75.0276 35.098 74.6329 36.4969Z" fill="black"/>
<path d="M73.7987 38.5592L72.9017 40.2987L60.5232 27.6645C60.922 27.4395 61.3355 27.2418 61.761 27.0726C61.8758 27.0583 61.9924 27.0693 62.1024 27.1049C62.2125 27.1406 62.3133 27.2 62.3979 27.2789C64.15 28.9587 65.8902 30.6504 67.6184 32.3541C69.6456 34.3986 71.6908 36.452 73.7987 38.5592Z" fill="black"/>
<path d="M29.9715 69.1091L30.8236 69.9072L22.9659 77.798L22.0689 77.0089L29.9715 69.1091Z" fill="black"/>
<path d="M31.1286 62.6888L31.7744 61.4335L38.475 68.0061L37.2192 68.9028L31.1286 62.6888Z" fill="black"/>
<path d="M31.9986 71.1177C32.0792 71.164 32.1571 71.2148 32.2319 71.2701C32.8777 71.8171 32.9046 71.9426 32.3126 72.5434C30.692 74.1813 29.0595 75.8073 27.415 77.4213C27.0024 77.8338 26.8409 77.7979 26.4552 77.4213C26.4039 77.3832 26.3614 77.3346 26.3304 77.2787C26.2995 77.2228 26.2808 77.1609 26.2757 77.0973C26.2706 77.0336 26.2792 76.9696 26.3009 76.9095C26.3226 76.8494 26.3568 76.7946 26.4014 76.7488C26.5808 76.5246 26.7602 76.3005 26.9665 76.0942L31.6488 71.4225C31.7564 71.306 31.8731 71.2163 31.9986 71.1177Z" fill="black"/>
<path d="M28.016 67.1006L28.8233 67.9255L23.9077 72.8483L23.0556 72.0772L28.016 67.1006Z" fill="black"/>
<path d="M22.0061 78.874L21.0553 79.7707L20.1583 78.874C21.1181 77.6096 21.0553 77.798 22.0061 78.874Z" fill="black"/>
<path d="M22.9838 73.978L22.0241 74.8746L21.0822 73.978C21.095 73.937 21.1131 73.8978 21.136 73.8614C22.1317 72.893 21.8626 72.7585 22.9838 73.978Z" fill="black"/>
<path d="M25.038 77.9952C25.935 78.6677 26.0247 78.8919 25.6479 79.3044C25.2712 79.7168 24.9303 79.7886 24.5088 79.3492C24.0872 78.9099 24.141 78.7395 25.038 77.9952Z" fill="black"/>
</svg>
