<svg width="374" height="113" viewBox="0 0 374 113" fill="none" xmlns="http://www.w3.org/2000/svg">
    <g filter="url(#filter0_d)">
        <path
            d="M23.0612 26V38.2812H32.53V44.9844H23.0612V76.4375C23.0612 78.4688 23.4831 80 24.3269 81.0312C25.1706 82.0312 26.6081 82.5312 28.6394 82.5312C29.6394 82.5312 31.0144 82.3438 32.7644 81.9688V89C30.4831 89.625 28.2644 89.9375 26.1081 89.9375C22.2331 89.9375 19.3112 88.7656 17.3425 86.4219C15.3737 84.0781 14.3894 80.75 14.3894 76.4375V44.9844H5.155V38.2812H14.3894V26H23.0612ZM65.6687 89.9375C58.7937 89.9375 53.2 87.6875 48.8875 83.1875C44.575 78.6562 42.4187 72.6094 42.4187 65.0469V63.4531C42.4187 58.4219 43.3719 53.9375 45.2781 50C47.2156 46.0312 49.9031 42.9375 53.3406 40.7188C56.8094 38.4688 60.5594 37.3438 64.5906 37.3438C71.1844 37.3438 76.3094 39.5156 79.9656 43.8594C83.6219 48.2031 85.45 54.4219 85.45 62.5156V66.125H51.0906C51.2156 71.125 52.6687 75.1719 55.45 78.2656C58.2625 81.3281 61.825 82.8594 66.1375 82.8594C69.2 82.8594 71.7937 82.2344 73.9187 80.9844C76.0437 79.7344 77.9031 78.0781 79.4969 76.0156L84.7937 80.1406C80.5437 86.6719 74.1687 89.9375 65.6687 89.9375ZM64.5906 44.4688C61.0906 44.4688 58.1531 45.75 55.7781 48.3125C53.4031 50.8438 51.9344 54.4062 51.3719 59H76.7781V58.3438C76.5281 53.9375 75.3406 50.5312 73.2156 48.125C71.0906 45.6875 68.2156 44.4688 64.5906 44.4688ZM117.792 82.8594C120.886 82.8594 123.589 81.9219 125.901 80.0469C128.214 78.1719 129.495 75.8281 129.745 73.0156H137.948C137.792 75.9219 136.792 78.6875 134.948 81.3125C133.104 83.9375 130.636 86.0312 127.542 87.5938C124.479 89.1562 121.229 89.9375 117.792 89.9375C110.886 89.9375 105.386 87.6406 101.292 83.0469C97.2294 78.4219 95.1981 72.1094 95.1981 64.1094V62.6562C95.1981 57.7188 96.1044 53.3281 97.9169 49.4844C99.7294 45.6406 102.323 42.6562 105.698 40.5312C109.104 38.4062 113.12 37.3438 117.745 37.3438C123.432 37.3438 128.151 39.0469 131.901 42.4531C135.682 45.8594 137.698 50.2812 137.948 55.7188H129.745C129.495 52.4375 128.245 49.75 125.995 47.6562C123.776 45.5312 121.026 44.4688 117.745 44.4688C113.339 44.4688 109.917 46.0625 107.479 49.25C105.073 52.4062 103.87 56.9844 103.87 62.9844V64.625C103.87 70.4688 105.073 74.9688 107.479 78.125C109.886 81.2812 113.323 82.8594 117.792 82.8594ZM158.29 44.4219C162.134 39.7031 167.134 37.3438 173.29 37.3438C184.009 37.3438 189.415 43.3906 189.509 55.4844V89H180.837V55.4375C180.806 51.7812 179.962 49.0781 178.306 47.3281C176.681 45.5781 174.134 44.7031 170.665 44.7031C167.852 44.7031 165.384 45.4531 163.259 46.9531C161.134 48.4531 159.477 50.4219 158.29 52.8594V89H149.618V17H158.29V44.4219ZM235.726 89C235.226 88 234.819 86.2188 234.507 83.6562C230.476 87.8438 225.663 89.9375 220.069 89.9375C215.069 89.9375 210.96 88.5312 207.741 85.7188C204.554 82.875 202.96 79.2812 202.96 74.9375C202.96 69.6562 204.96 65.5625 208.96 62.6562C212.991 59.7188 218.647 58.25 225.929 58.25H234.366V54.2656C234.366 51.2344 233.46 48.8281 231.647 47.0469C229.835 45.2344 227.163 44.3281 223.632 44.3281C220.538 44.3281 217.944 45.1094 215.851 46.6719C213.757 48.2344 212.71 50.125 212.71 52.3438H203.991C203.991 49.8125 204.882 47.375 206.663 45.0312C208.476 42.6562 210.913 40.7812 213.976 39.4062C217.069 38.0312 220.46 37.3438 224.147 37.3438C229.991 37.3438 234.569 38.8125 237.882 41.75C241.194 44.6562 242.913 48.6719 243.038 53.7969V77.1406C243.038 81.7969 243.632 85.5 244.819 88.25V89H235.726ZM221.335 82.3906C224.054 82.3906 226.632 81.6875 229.069 80.2812C231.507 78.875 233.272 77.0469 234.366 74.7969V64.3906H227.569C216.944 64.3906 211.632 67.5 211.632 73.7188C211.632 76.4375 212.538 78.5625 214.351 80.0938C216.163 81.625 218.491 82.3906 221.335 82.3906ZM288.083 75.5469C288.083 73.2031 287.193 71.3906 285.411 70.1094C283.661 68.7969 280.583 67.6719 276.177 66.7344C271.802 65.7969 268.318 64.6719 265.724 63.3594C263.161 62.0469 261.255 60.4844 260.005 58.6719C258.786 56.8594 258.177 54.7031 258.177 52.2031C258.177 48.0469 259.927 44.5312 263.427 41.6562C266.958 38.7812 271.458 37.3438 276.927 37.3438C282.677 37.3438 287.333 38.8281 290.896 41.7969C294.489 44.7656 296.286 48.5625 296.286 53.1875H287.568C287.568 50.8125 286.552 48.7656 284.521 47.0469C282.521 45.3281 279.989 44.4688 276.927 44.4688C273.771 44.4688 271.302 45.1562 269.521 46.5312C267.739 47.9062 266.849 49.7031 266.849 51.9219C266.849 54.0156 267.677 55.5938 269.333 56.6562C270.989 57.7188 273.974 58.7344 278.286 59.7031C282.63 60.6719 286.146 61.8281 288.833 63.1719C291.521 64.5156 293.505 66.1406 294.786 68.0469C296.099 69.9219 296.755 72.2188 296.755 74.9375C296.755 79.4688 294.943 83.1094 291.318 85.8594C287.693 88.5781 282.989 89.9375 277.208 89.9375C273.146 89.9375 269.552 89.2188 266.427 87.7812C263.302 86.3438 260.849 84.3438 259.068 81.7812C257.318 79.1875 256.443 76.3906 256.443 73.3906H265.114C265.271 76.2969 266.427 78.6094 268.583 80.3281C270.771 82.0156 273.646 82.8594 277.208 82.8594C280.489 82.8594 283.114 82.2031 285.083 80.8906C287.083 79.5469 288.083 77.7656 288.083 75.5469ZM321.737 26V38.2812H331.206V44.9844H321.737V76.4375C321.737 78.4688 322.159 80 323.003 81.0312C323.847 82.0312 325.284 82.5312 327.316 82.5312C328.316 82.5312 329.691 82.3438 331.441 81.9688V89C329.159 89.625 326.941 89.9375 324.784 89.9375C320.909 89.9375 317.987 88.7656 316.019 86.4219C314.05 84.0781 313.066 80.75 313.066 76.4375V44.9844H303.831V38.2812H313.066V26H321.737ZM367.814 46.0625C366.501 45.8438 365.079 45.7344 363.548 45.7344C357.861 45.7344 354.001 48.1562 351.97 53V89H343.298V38.2812H351.736L351.876 44.1406C354.72 39.6094 358.751 37.3438 363.97 37.3438C365.658 37.3438 366.939 37.5625 367.814 38V46.0625Z"
            fill="white" />
    </g>
    <g filter="url(#filter1_d)">
        <circle cx="275.5" cy="25.5" r="8.5" fill="#FF0000" />
    </g>
    <g filter="url(#filter2_d)">
        <circle cx="351.5" cy="25.5" r="8.5" fill="#FF0000" />
    </g>
    <defs>
        <filter id="filter0_d" x="0.155029" y="16" width="372.659" height="82.9375" filterUnits="userSpaceOnUse"
            color-interpolation-filters="sRGB">
            <feFlood flood-opacity="0" result="BackgroundImageFix" />
            <feColorMatrix in="SourceAlpha" type="matrix" values="0 0 0 0 0 0 0 0 0 0 0 0 0 0 0 0 0 0 127 0" />
            <feOffset dy="4" />
            <feGaussianBlur stdDeviation="2.5" />
            <feColorMatrix type="matrix" values="0 0 0 0 0 0 0 0 0 0 0 0 0 0 0 0 0 0 0.1 0" />
            <feBlend mode="normal" in2="BackgroundImageFix" result="effect1_dropShadow" />
            <feBlend mode="normal" in="SourceGraphic" in2="effect1_dropShadow" result="shape" />
        </filter>
        <filter id="filter1_d" x="262" y="16" width="27" height="27" filterUnits="userSpaceOnUse"
            color-interpolation-filters="sRGB">
            <feFlood flood-opacity="0" result="BackgroundImageFix" />
            <feColorMatrix in="SourceAlpha" type="matrix" values="0 0 0 0 0 0 0 0 0 0 0 0 0 0 0 0 0 0 127 0" />
            <feOffset dy="4" />
            <feGaussianBlur stdDeviation="2.5" />
            <feColorMatrix type="matrix" values="0 0 0 0 0 0 0 0 0 0 0 0 0 0 0 0 0 0 0.25 0" />
            <feBlend mode="normal" in2="BackgroundImageFix" result="effect1_dropShadow" />
            <feBlend mode="normal" in="SourceGraphic" in2="effect1_dropShadow" result="shape" />
        </filter>
        <filter id="filter2_d" x="338" y="16" width="27" height="27" filterUnits="userSpaceOnUse"
            color-interpolation-filters="sRGB">
            <feFlood flood-opacity="0" result="BackgroundImageFix" />
            <feColorMatrix in="SourceAlpha" type="matrix" values="0 0 0 0 0 0 0 0 0 0 0 0 0 0 0 0 0 0 127 0" />
            <feOffset dy="4" />
            <feGaussianBlur stdDeviation="2.5" />
            <feColorMatrix type="matrix" values="0 0 0 0 0 0 0 0 0 0 0 0 0 0 0 0 0 0 0.25 0" />
            <feBlend mode="normal" in2="BackgroundImageFix" result="effect1_dropShadow" />
            <feBlend mode="normal" in="SourceGraphic" in2="effect1_dropShadow" result="shape" />
        </filter>
    </defs>
</svg>